<svg xmlns="http://www.w3.org/2000/svg" viewBox="0 0 1170 1080" width="1170" height="1080" preserveAspectRatio="xMidYMid meet" style="width: 100%; height: 100%; transform: translate3d(0px, 0px, 0px);"><defs><clipPath id="__lottie_element_570"><rect width="1170" height="1080" x="0" y="0"></rect></clipPath></defs><g clip-path="url(#__lottie_element_570)"><g transform="matrix(1,0,0,1,847.9660034179688,370.5966491699219)" opacity="1" style="display: block;"><g opacity="1" transform="matrix(1,0,0,1,109.66899871826172,360.3710021972656)"><path fill="rgb(255,255,255)" fill-opacity="1" d=" M104.66999816894531,-261.9700012207031 C104.66999816894531,-261.9700012207031 62.77799987792969,-261.9700012207031 62.77799987792969,-261.9700012207031 C62.77799987792969,-261.9700012207031 62.99681091308594,110.08946228027344 62.99681091308594,110.08946228027344 C62.99681091308594,110.08946228027344 -62.60591125488281,110.08946228027344 -62.60591125488281,110.08946228027344 C-62.60591125488281,110.08946228027344 -62.82400131225586,-261.9700012207031 -62.82400131225586,-261.9700012207031 C-62.82400131225586,-261.9700012207031 -104.66999816894531,-261.9700012207031 -104.66999816894531,-261.9700012207031 C-104.66999816894531,-261.9700012207031 0.0010000000474974513,-355.3710021972656 0.0010000000474974513,-355.3710021972656 C0.0010000000474974513,-355.3710021972656 104.66999816894531,-261.9700012207031 104.66999816894531,-261.9700012207031z"></path><path stroke-linecap="round" stroke-linejoin="round" fill-opacity="0" stroke="rgb(37,50,55)" stroke-opacity="1" stroke-width="2" d=" M104.66999816894531,-261.9700012207031 C104.66999816894531,-261.9700012207031 62.77799987792969,-261.9700012207031 62.77799987792969,-261.9700012207031 C62.77799987792969,-261.9700012207031 62.99681091308594,110.08946228027344 62.99681091308594,110.08946228027344 C62.99681091308594,110.08946228027344 -62.60591125488281,110.08946228027344 -62.60591125488281,110.08946228027344 C-62.60591125488281,110.08946228027344 -62.82400131225586,-261.9700012207031 -62.82400131225586,-261.9700012207031 C-62.82400131225586,-261.9700012207031 -104.66999816894531,-261.9700012207031 -104.66999816894531,-261.9700012207031 C-104.66999816894531,-261.9700012207031 0.0010000000474974513,-355.3710021972656 0.0010000000474974513,-355.3710021972656 C0.0010000000474974513,-355.3710021972656 104.66999816894531,-261.9700012207031 104.66999816894531,-261.9700012207031z"></path></g></g><g transform="matrix(1,0,0,1,68.447998046875,231.82518005371094)" opacity="1" style="display: block;"><g opacity="1" transform="matrix(1,0,0,1,101.1760025024414,78.06500244140625)"><path fill="rgb(37,50,55)" fill-opacity="1" d=" M82.40299987792969,64.7760009765625 C82.40299987792969,64.7760009765625 -82.40299987792969,64.7760009765625 -82.40299987792969,64.7760009765625 C-85.8479995727539,64.7760009765625 -88.64099884033203,61.983001708984375 -88.64099884033203,58.53799819946289 C-88.64099884033203,58.53799819946289 -88.64099884033203,-58.53799819946289 -88.64099884033203,-58.53799819946289 C-88.64099884033203,-61.983001708984375 -85.8479995727539,-64.7760009765625 -82.40299987792969,-64.7760009765625 C-82.40299987792969,-64.7760009765625 82.40299987792969,-64.7760009765625 82.40299987792969,-64.7760009765625 C85.8479995727539,-64.7760009765625 88.64099884033203,-61.983001708984375 88.64099884033203,-58.53799819946289 C88.64099884033203,-58.53799819946289 88.64099884033203,58.53799819946289 88.64099884033203,58.53799819946289 C88.64099884033203,61.983001708984375 85.8479995727539,64.7760009765625 82.40299987792969,64.7760009765625z"></path><path stroke-linecap="round" stroke-linejoin="round" fill-opacity="0" stroke="rgb(37,50,55)" stroke-opacity="1" stroke-width="2" d=" M82.40299987792969,64.7760009765625 C82.40299987792969,64.7760009765625 -82.40299987792969,64.7760009765625 -82.40299987792969,64.7760009765625 C-85.8479995727539,64.7760009765625 -88.64099884033203,61.983001708984375 -88.64099884033203,58.53799819946289 C-88.64099884033203,58.53799819946289 -88.64099884033203,-58.53799819946289 -88.64099884033203,-58.53799819946289 C-88.64099884033203,-61.983001708984375 -85.8479995727539,-64.7760009765625 -82.40299987792969,-64.7760009765625 C-82.40299987792969,-64.7760009765625 82.40299987792969,-64.7760009765625 82.40299987792969,-64.7760009765625 C85.8479995727539,-64.7760009765625 88.64099884033203,-61.983001708984375 88.64099884033203,-58.53799819946289 C88.64099884033203,-58.53799819946289 88.64099884033203,58.53799819946289 88.64099884033203,58.53799819946289 C88.64099884033203,61.983001708984375 85.8479995727539,64.7760009765625 82.40299987792969,64.7760009765625z"></path></g><g opacity="1" transform="matrix(1,0,0,1,99.92400360107422,80.10800170898438)"><path fill="rgb(37,50,55)" fill-opacity="1" d=" M-75.9520034790039,-50.95600128173828 C-75.9520034790039,-50.95600128173828 -75.9520034790039,50.95600128173828 -75.9520034790039,50.95600128173828 C-75.9520034790039,50.95600128173828 75.9530029296875,50.95600128173828 75.9530029296875,50.95600128173828"></path><path stroke-linecap="round" stroke-linejoin="round" fill-opacity="0" stroke="rgb(37,50,55)" stroke-opacity="1" stroke-width="2" d=" M-75.9520034790039,-50.95600128173828 C-75.9520034790039,-50.95600128173828 -75.9520034790039,50.95600128173828 -75.9520034790039,50.95600128173828 C-75.9520034790039,50.95600128173828 75.9530029296875,50.95600128173828 75.9530029296875,50.95600128173828"></path></g><g opacity="1" transform="matrix(1,0,0,1,0,0)"><path fill="rgb(37,50,55)" fill-opacity="1" d=" M23.972000122070312,47.21900177001953 C23.972000122070312,47.21900177001953 175.8769989013672,47.21900177001953 175.8769989013672,47.21900177001953"></path><path stroke-linecap="round" stroke-linejoin="round" fill-opacity="0" stroke="rgb(37,50,55)" stroke-opacity="1" stroke-width="2" d=" M23.972000122070312,47.21900177001953 C23.972000122070312,47.21900177001953 175.8769989013672,47.21900177001953 175.8769989013672,47.21900177001953"></path></g><g opacity="1" transform="matrix(1,0,0,1,0,0)"><path fill="rgb(37,50,55)" fill-opacity="1" d=" M23.972000122070312,74.98999786376953 C23.972000122070312,74.98999786376953 175.8769989013672,74.98999786376953 175.8769989013672,74.98999786376953"></path><path stroke-linecap="round" stroke-linejoin="round" fill-opacity="0" stroke="rgb(37,50,55)" stroke-opacity="1" stroke-width="2" d=" M23.972000122070312,74.98999786376953 C23.972000122070312,74.98999786376953 175.8769989013672,74.98999786376953 175.8769989013672,74.98999786376953"></path></g><g opacity="1" transform="matrix(1,0,0,1,0,0)"><path fill="rgb(37,50,55)" fill-opacity="1" d=" M23.972000122070312,102.76100158691406 C23.972000122070312,102.76100158691406 175.8769989013672,102.76100158691406 175.8769989013672,102.76100158691406"></path><path stroke-linecap="round" stroke-linejoin="round" fill-opacity="0" stroke="rgb(37,50,55)" stroke-opacity="1" stroke-width="2" d=" M23.972000122070312,102.76100158691406 C23.972000122070312,102.76100158691406 175.8769989013672,102.76100158691406 175.8769989013672,102.76100158691406"></path></g><g opacity="1" transform="matrix(1,0,0,1,93.64099884033203,69.7760009765625)"><path fill="rgb(255,255,255)" fill-opacity="1" d=" M82.49299621582031,64.7760009765625 C82.49299621582031,64.7760009765625 -82.49299621582031,64.7760009765625 -82.49299621582031,64.7760009765625 C-85.88899993896484,64.7760009765625 -88.64099884033203,62.02399826049805 -88.64099884033203,58.62799835205078 C-88.64099884033203,58.62799835205078 -88.64099884033203,-58.62799835205078 -88.64099884033203,-58.62799835205078 C-88.64099884033203,-62.02299880981445 -85.88899993896484,-64.7760009765625 -82.49299621582031,-64.7760009765625 C-82.49299621582031,-64.7760009765625 82.49299621582031,-64.7760009765625 82.49299621582031,-64.7760009765625 C85.88800048828125,-64.7760009765625 88.64099884033203,-62.02299880981445 88.64099884033203,-58.62799835205078 C88.64099884033203,-58.62799835205078 88.64099884033203,58.62799835205078 88.64099884033203,58.62799835205078 C88.64099884033203,62.02399826049805 85.88800048828125,64.7760009765625 82.49299621582031,64.7760009765625z"></path><path stroke-linecap="round" stroke-linejoin="round" fill-opacity="0" stroke="rgb(37,50,55)" stroke-opacity="1" stroke-width="2" d=" M82.49299621582031,64.7760009765625 C82.49299621582031,64.7760009765625 -82.49299621582031,64.7760009765625 -82.49299621582031,64.7760009765625 C-85.88899993896484,64.7760009765625 -88.64099884033203,62.02399826049805 -88.64099884033203,58.62799835205078 C-88.64099884033203,58.62799835205078 -88.64099884033203,-58.62799835205078 -88.64099884033203,-58.62799835205078 C-88.64099884033203,-62.02299880981445 -85.88899993896484,-64.7760009765625 -82.49299621582031,-64.7760009765625 C-82.49299621582031,-64.7760009765625 82.49299621582031,-64.7760009765625 82.49299621582031,-64.7760009765625 C85.88800048828125,-64.7760009765625 88.64099884033203,-62.02299880981445 88.64099884033203,-58.62799835205078 C88.64099884033203,-58.62799835205078 88.64099884033203,58.62799835205078 88.64099884033203,58.62799835205078 C88.64099884033203,62.02399826049805 85.88800048828125,64.7760009765625 82.49299621582031,64.7760009765625z"></path></g><g opacity="1" transform="matrix(1,0,0,1,92.38899993896484,71.81900024414062)"><path stroke-linecap="round" stroke-linejoin="round" fill-opacity="0" stroke="rgb(37,50,55)" stroke-opacity="1" stroke-width="2" d=" M-75.9520034790039,-50.95600128173828 C-75.9520034790039,-50.95600128173828 -75.9520034790039,50.95600128173828 -75.9520034790039,50.95600128173828 C-75.9520034790039,50.95600128173828 75.9520034790039,50.95600128173828 75.9520034790039,50.95600128173828"></path></g><g opacity="1" transform="matrix(1,0,0,1,0,0)"><path fill="rgb(212,212,212)" fill-opacity="1" d=" M16.437000274658203,38.93000030517578 C16.437000274658203,38.93000030517578 168.3419952392578,38.93000030517578 168.3419952392578,38.93000030517578"></path><path stroke-linecap="round" stroke-linejoin="round" fill-opacity="0" stroke="rgb(37,50,55)" stroke-opacity="1" stroke-width="2" d=" M16.437000274658203,38.93000030517578 C16.437000274658203,38.93000030517578 168.3419952392578,38.93000030517578 168.3419952392578,38.93000030517578"></path></g><g opacity="1" transform="matrix(1,0,0,1,0,0)"><path fill="rgb(212,212,212)" fill-opacity="1" d=" M16.437000274658203,66.70099639892578 C16.437000274658203,66.70099639892578 168.3419952392578,66.70099639892578 168.3419952392578,66.70099639892578"></path><path stroke-linecap="round" stroke-linejoin="round" fill-opacity="0" stroke="rgb(37,50,55)" stroke-opacity="1" stroke-width="2" d=" M16.437000274658203,66.70099639892578 C16.437000274658203,66.70099639892578 168.3419952392578,66.70099639892578 168.3419952392578,66.70099639892578"></path></g><g opacity="1" transform="matrix(1,0,0,1,0,0)"><path fill="rgb(212,212,212)" fill-opacity="1" d=" M16.437000274658203,94.4729995727539 C16.437000274658203,94.4729995727539 168.3419952392578,94.4729995727539 168.3419952392578,94.4729995727539"></path><path stroke-linecap="round" stroke-linejoin="round" fill-opacity="0" stroke="rgb(37,50,55)" stroke-opacity="1" stroke-width="2" d=" M16.437000274658203,94.4729995727539 C16.437000274658203,94.4729995727539 168.3419952392578,94.4729995727539 168.3419952392578,94.4729995727539"></path></g><g opacity="1" transform="matrix(1,0,0,1,92.71800231933594,77.55000305175781)"><path fill="rgb(2,195,126)" fill-opacity="1" d=" M-65.9749984741211,22.5 C-65.9749984741211,22.5 -26.284000396728516,-32.696998596191406 -26.284000396728516,-32.696998596191406 C-26.284000396728516,-32.696998596191406 18.368000030517578,4.464000225067139 18.368000030517578,4.464000225067139 C18.368000030517578,4.464000225067139 43.50199890136719,-21.711999893188477 43.50199890136719,-21.711999893188477 C43.50199890136719,-21.711999893188477 36.1349983215332,-27.780000686645508 36.1349983215332,-27.780000686645508 C36.1349983215332,-27.780000686645508 65.9749984741211,-31.6200008392334 65.9749984741211,-31.6200008392334 C65.9749984741211,-31.6200008392334 53.75199890136719,-2.625 53.75199890136719,-2.625 C53.75199890136719,-2.625 48.67599868774414,-10.699999809265137 48.67599868774414,-10.699999809265137 C48.67599868774414,-10.699999809265137 18.687999725341797,20.488000869750977 18.687999725341797,20.488000869750977 C18.687999725341797,20.488000869750977 -25.179000854492188,-15.960000038146973 -25.179000854492188,-15.960000038146973 C-25.179000854492188,-15.960000038146973 -59.39400100708008,32.696998596191406 -59.39400100708008,32.696998596191406 C-59.39400100708008,32.696998596191406 -65.9749984741211,22.5 -65.9749984741211,22.5z"></path><path stroke-linecap="round" stroke-linejoin="round" fill-opacity="0" stroke="rgb(37,50,55)" stroke-opacity="1" stroke-width="2" d=" M-65.9749984741211,22.5 C-65.9749984741211,22.5 -26.284000396728516,-32.696998596191406 -26.284000396728516,-32.696998596191406 C-26.284000396728516,-32.696998596191406 18.368000030517578,4.464000225067139 18.368000030517578,4.464000225067139 C18.368000030517578,4.464000225067139 43.50199890136719,-21.711999893188477 43.50199890136719,-21.711999893188477 C43.50199890136719,-21.711999893188477 36.1349983215332,-27.780000686645508 36.1349983215332,-27.780000686645508 C36.1349983215332,-27.780000686645508 65.9749984741211,-31.6200008392334 65.9749984741211,-31.6200008392334 C65.9749984741211,-31.6200008392334 53.75199890136719,-2.625 53.75199890136719,-2.625 C53.75199890136719,-2.625 48.67599868774414,-10.699999809265137 48.67599868774414,-10.699999809265137 C48.67599868774414,-10.699999809265137 18.687999725341797,20.488000869750977 18.687999725341797,20.488000869750977 C18.687999725341797,20.488000869750977 -25.179000854492188,-15.960000038146973 -25.179000854492188,-15.960000038146973 C-25.179000854492188,-15.960000038146973 -59.39400100708008,32.696998596191406 -59.39400100708008,32.696998596191406 C-59.39400100708008,32.696998596191406 -65.9749984741211,22.5 -65.9749984741211,22.5z"></path></g></g><g transform="matrix(1,0,0,1,185.35400390625,25.480804443359375)" opacity="1" style="display: block;"><g opacity="1" transform="matrix(1,0,0,1,97.07499694824219,83.58899688720703)"><path fill="rgb(37,50,55)" fill-opacity="1" d=" M73.89099884033203,69.28399658203125 C73.89099884033203,69.28399658203125 -73.89099884033203,69.28399658203125 -73.89099884033203,69.28399658203125 C-79.43699645996094,69.28399658203125 -83.93399810791016,64.78800201416016 -83.93399810791016,59.24100112915039 C-83.93399810791016,59.24100112915039 -83.93399810791016,-59.242000579833984 -83.93399810791016,-59.242000579833984 C-83.93399810791016,-64.78800201416016 -79.43699645996094,-69.28399658203125 -73.89099884033203,-69.28399658203125 C-73.89099884033203,-69.28399658203125 73.89099884033203,-69.28399658203125 73.89099884033203,-69.28399658203125 C79.43699645996094,-69.28399658203125 83.93399810791016,-64.78800201416016 83.93399810791016,-59.242000579833984 C83.93399810791016,-59.242000579833984 83.93399810791016,59.24100112915039 83.93399810791016,59.24100112915039 C83.93399810791016,64.78800201416016 79.43699645996094,69.28399658203125 73.89099884033203,69.28399658203125z"></path><path stroke-linecap="round" stroke-linejoin="round" fill-opacity="0" stroke="rgb(37,50,55)" stroke-opacity="1" stroke-width="2" d=" M73.89099884033203,69.28399658203125 C73.89099884033203,69.28399658203125 -73.89099884033203,69.28399658203125 -73.89099884033203,69.28399658203125 C-79.43699645996094,69.28399658203125 -83.93399810791016,64.78800201416016 -83.93399810791016,59.24100112915039 C-83.93399810791016,59.24100112915039 -83.93399810791016,-59.242000579833984 -83.93399810791016,-59.242000579833984 C-83.93399810791016,-64.78800201416016 -79.43699645996094,-69.28399658203125 -73.89099884033203,-69.28399658203125 C-73.89099884033203,-69.28399658203125 73.89099884033203,-69.28399658203125 73.89099884033203,-69.28399658203125 C79.43699645996094,-69.28399658203125 83.93399810791016,-64.78800201416016 83.93399810791016,-59.242000579833984 C83.93399810791016,-59.242000579833984 83.93399810791016,59.24100112915039 83.93399810791016,59.24100112915039 C83.93399810791016,64.78800201416016 79.43699645996094,69.28399658203125 73.89099884033203,69.28399658203125z"></path></g><g opacity="1" transform="matrix(1,0,0,1,88.93399810791016,74.28500366210938)"><path fill="rgb(255,255,255)" fill-opacity="1" d=" M73.89099884033203,69.28399658203125 C73.89099884033203,69.28399658203125 -73.89099884033203,69.28399658203125 -73.89099884033203,69.28399658203125 C-79.43699645996094,69.28399658203125 -83.93399810791016,64.78900146484375 -83.93399810791016,59.242000579833984 C-83.93399810791016,59.242000579833984 -83.93399810791016,-59.242000579833984 -83.93399810791016,-59.242000579833984 C-83.93399810791016,-64.78800201416016 -79.43699645996094,-69.28399658203125 -73.89099884033203,-69.28399658203125 C-73.89099884033203,-69.28399658203125 73.89099884033203,-69.28399658203125 73.89099884033203,-69.28399658203125 C79.43699645996094,-69.28399658203125 83.93399810791016,-64.78800201416016 83.93399810791016,-59.242000579833984 C83.93399810791016,-59.242000579833984 83.93399810791016,59.242000579833984 83.93399810791016,59.242000579833984 C83.93399810791016,64.78900146484375 79.43699645996094,69.28399658203125 73.89099884033203,69.28399658203125z"></path><path stroke-linecap="round" stroke-linejoin="round" fill-opacity="0" stroke="rgb(37,50,55)" stroke-opacity="1" stroke-width="2" d=" M73.89099884033203,69.28399658203125 C73.89099884033203,69.28399658203125 -73.89099884033203,69.28399658203125 -73.89099884033203,69.28399658203125 C-79.43699645996094,69.28399658203125 -83.93399810791016,64.78900146484375 -83.93399810791016,59.242000579833984 C-83.93399810791016,59.242000579833984 -83.93399810791016,-59.242000579833984 -83.93399810791016,-59.242000579833984 C-83.93399810791016,-64.78800201416016 -79.43699645996094,-69.28399658203125 -73.89099884033203,-69.28399658203125 C-73.89099884033203,-69.28399658203125 73.89099884033203,-69.28399658203125 73.89099884033203,-69.28399658203125 C79.43699645996094,-69.28399658203125 83.93399810791016,-64.78800201416016 83.93399810791016,-59.242000579833984 C83.93399810791016,-59.242000579833984 83.93399810791016,59.242000579833984 83.93399810791016,59.242000579833984 C83.93399810791016,64.78900146484375 79.43699645996094,69.28399658203125 73.89099884033203,69.28399658203125z"></path></g><g opacity="1" transform="matrix(1,0,0,1,85.09200286865234,78.22699737548828)"><path fill="rgb(2,195,126)" fill-opacity="1" d=" M42.71699905395508,-0.012000000104308128 C42.71699905395508,23.584999084472656 23.584999084472656,42.70500183105469 -0.0010000000474974513,42.70500183105469 C-23.586000442504883,42.70500183105469 -42.71699905395508,23.584999084472656 -42.71699905395508,-0.012000000104308128 C-42.71699905395508,-23.260000228881836 -24.132999420166016,-42.159000396728516 -1.0240000486373901,-42.70500183105469 C-1.0240000486373901,-42.70500183105469 -1.0240000486373901,-0.012000000104308128 -1.0240000486373901,-0.012000000104308128 C-1.0240000486373901,-0.012000000104308128 42.71699905395508,-0.012000000104308128 42.71699905395508,-0.012000000104308128z"></path><path stroke-linecap="round" stroke-linejoin="round" fill-opacity="0" stroke="rgb(37,50,55)" stroke-opacity="1" stroke-width="2" d=" M42.71699905395508,-0.012000000104308128 C42.71699905395508,23.584999084472656 23.584999084472656,42.70500183105469 -0.0010000000474974513,42.70500183105469 C-23.586000442504883,42.70500183105469 -42.71699905395508,23.584999084472656 -42.71699905395508,-0.012000000104308128 C-42.71699905395508,-23.260000228881836 -24.132999420166016,-42.159000396728516 -1.0240000486373901,-42.70500183105469 C-1.0240000486373901,-42.70500183105469 -1.0240000486373901,-0.012000000104308128 -1.0240000486373901,-0.012000000104308128 C-1.0240000486373901,-0.012000000104308128 42.71699905395508,-0.012000000104308128 42.71699905395508,-0.012000000104308128z"></path></g><g opacity="1" transform="matrix(1,0,0,1,113.6240005493164,48.99300003051758)"><path fill="rgb(37,50,55)" fill-opacity="1" d=" M-21.868999481201172,-21.35700035095215 C-21.868999481201172,-21.35700035095215 -21.868999481201172,21.35700035095215 -21.868999481201172,21.35700035095215 C-21.868999481201172,21.35700035095215 21.868999481201172,21.35700035095215 21.868999481201172,21.35700035095215 C21.413000106811523,-2.953000068664551 3.815999984741211,-20.77899932861328 -21.868999481201172,-21.35700035095215z"></path><path stroke-linecap="round" stroke-linejoin="round" fill-opacity="0" stroke="rgb(37,50,55)" stroke-opacity="1" stroke-width="2" d=" M-21.868999481201172,-21.35700035095215 C-21.868999481201172,-21.35700035095215 -21.868999481201172,21.35700035095215 -21.868999481201172,21.35700035095215 C-21.868999481201172,21.35700035095215 21.868999481201172,21.35700035095215 21.868999481201172,21.35700035095215 C21.413000106811523,-2.953000068664551 3.815999984741211,-20.77899932861328 -21.868999481201172,-21.35700035095215z"></path></g></g><g transform="matrix(1,0,0,1,73.4320068359375,612.7550048828125)" opacity="1" style="display: block;"><g opacity="1" transform="matrix(1,0,0,1,504.2510070800781,213.49000549316406)"><path fill="rgb(2,195,126)" fill-opacity="1" d=" M-499.2510070800781,208.49000549316406 C-499.2510070800781,208.49000549316406 -499.2510070800781,50.28900146484375 -499.2510070800781,50.28900146484375 C-499.2510070800781,50.28900146484375 -247.26600646972656,50.28900146484375 -247.26600646972656,50.28900146484375 C-247.26600646972656,50.28900146484375 -247.26600646972656,-37.71699905395508 -247.26600646972656,-37.71699905395508 C-247.26600646972656,-37.71699905395508 7,-37.71699905395508 7,-37.71699905395508 C7,-37.71699905395508 7,-129.91299438476562 7,-129.91299438476562 C7,-129.91299438476562 258.9840087890625,-129.91299438476562 258.9840087890625,-129.91299438476562 C258.9840087890625,-129.91299438476562 258.9840087890625,-208.49000549316406 258.9840087890625,-208.49000549316406 C258.9840087890625,-208.49000549316406 495.0469970703125,-208.49000549316406 495.0469970703125,-208.49000549316406 C495.0469970703125,-208.49000549316406 499.2510070800781,203.2519989013672 499.2510070800781,203.2519989013672 C499.2510070800781,203.2519989013672 -499.2510070800781,208.49000549316406 -499.2510070800781,208.49000549316406z"></path><path stroke-linecap="round" stroke-linejoin="round" fill-opacity="0" stroke="rgb(37,50,55)" stroke-opacity="1" stroke-width="2" d=" M-499.2510070800781,208.49000549316406 C-499.2510070800781,208.49000549316406 -499.2510070800781,50.28900146484375 -499.2510070800781,50.28900146484375 C-499.2510070800781,50.28900146484375 -247.26600646972656,50.28900146484375 -247.26600646972656,50.28900146484375 C-247.26600646972656,50.28900146484375 -247.26600646972656,-37.71699905395508 -247.26600646972656,-37.71699905395508 C-247.26600646972656,-37.71699905395508 7,-37.71699905395508 7,-37.71699905395508 C7,-37.71699905395508 7,-129.91299438476562 7,-129.91299438476562 C7,-129.91299438476562 258.9840087890625,-129.91299438476562 258.9840087890625,-129.91299438476562 C258.9840087890625,-129.91299438476562 258.9840087890625,-208.49000549316406 258.9840087890625,-208.49000549316406 C258.9840087890625,-208.49000549316406 495.0469970703125,-208.49000549316406 495.0469970703125,-208.49000549316406 C495.0469970703125,-208.49000549316406 499.2510070800781,203.2519989013672 499.2510070800781,203.2519989013672 C499.2510070800781,203.2519989013672 -499.2510070800781,208.49000549316406 -499.2510070800781,208.49000549316406z"></path></g><g opacity="1" transform="matrix(1,0,0,1,0,0)"><path fill="rgb(2,195,126)" fill-opacity="1" d=" M256.9859924316406,420.5790100097656 C256.9859924316406,420.5790100097656 256.9859924316406,263.77899169921875 256.9859924316406,263.77899169921875 C256.9859924316406,263.77899169921875 256.9859924316406,420.5790100097656 256.9859924316406,420.5790100097656z"></path></g><g opacity="1" transform="matrix(1,0,0,1,0,0)"><path stroke-linecap="round" stroke-linejoin="round" fill-opacity="0" stroke="rgb(37,50,55)" stroke-opacity="1" stroke-width="2" d=" M256.9849853515625,263.77899169921875 C256.9849853515625,263.77899169921875 256.9849853515625,420.5780029296875 256.9849853515625,420.5780029296875"></path></g><g opacity="1" transform="matrix(1,0,0,1,0,0)"><path fill="rgb(2,195,126)" fill-opacity="1" d=" M511.2510070800781,419.16400146484375 C511.2510070800781,419.16400146484375 511.2510070800781,175.7729949951172 511.2510070800781,175.7729949951172 C511.2510070800781,175.7729949951172 511.2510070800781,419.16400146484375 511.2510070800781,419.16400146484375z"></path></g><g opacity="1" transform="matrix(1,0,0,1,0,0)"><path stroke-linecap="round" stroke-linejoin="round" fill-opacity="0" stroke="rgb(37,50,55)" stroke-opacity="1" stroke-width="2" d=" M511.2510070800781,175.7729949951172 C511.2510070800781,175.7729949951172 511.2510070800781,419.16400146484375 511.2510070800781,419.16400146484375"></path></g><g opacity="1" transform="matrix(1,0,0,1,0,0)"><path fill="rgb(2,195,126)" fill-opacity="1" d=" M763.2349853515625,417.73699951171875 C763.2349853515625,417.73699951171875 763.2349853515625,83.57599639892578 763.2349853515625,83.57599639892578 C763.2349853515625,83.57599639892578 763.2349853515625,417.73699951171875 763.2349853515625,417.73699951171875z"></path></g><g opacity="1" transform="matrix(1,0,0,1,0,0)"><path stroke-linecap="round" stroke-linejoin="round" fill-opacity="0" stroke="rgb(37,50,55)" stroke-opacity="1" stroke-width="2" d=" M763.2360229492188,83.5770034790039 C763.2360229492188,83.5770034790039 763.2360229492188,417.7380065917969 763.2360229492188,417.7380065917969"></path></g><g opacity="1" transform="matrix(1,0,0,1,532.3560180664062,245.1739959716797)"><path fill="rgb(2,195,126)" fill-opacity="1" d=" M-499.2510070800781,208.49000549316406 C-499.2510070800781,208.49000549316406 -499.2510070800781,50.28900146484375 -499.2510070800781,50.28900146484375 C-499.2510070800781,50.28900146484375 -247.26600646972656,50.28900146484375 -247.26600646972656,50.28900146484375 C-247.26600646972656,50.28900146484375 -247.26600646972656,-37.71699905395508 -247.26600646972656,-37.71699905395508 C-247.26600646972656,-37.71699905395508 6.999000072479248,-37.71699905395508 6.999000072479248,-37.71699905395508 C6.999000072479248,-37.71699905395508 6.999000072479248,-129.91299438476562 6.999000072479248,-129.91299438476562 C6.999000072479248,-129.91299438476562 258.9849853515625,-129.91299438476562 258.9849853515625,-129.91299438476562 C258.9849853515625,-129.91299438476562 258.9849853515625,-208.49000549316406 258.9849853515625,-208.49000549316406 C258.9849853515625,-208.49000549316406 495.0459899902344,-208.49000549316406 495.0459899902344,-208.49000549316406 C495.0459899902344,-208.49000549316406 499.25201416015625,203.2519989013672 499.25201416015625,203.2519989013672 C499.25201416015625,203.2519989013672 -499.2510070800781,208.49000549316406 -499.2510070800781,208.49000549316406z"></path><path stroke-linecap="round" stroke-linejoin="round" fill-opacity="0" stroke="rgb(37,50,55)" stroke-opacity="1" stroke-width="2" d=" M-499.2510070800781,208.49000549316406 C-499.2510070800781,208.49000549316406 -499.2510070800781,50.28900146484375 -499.2510070800781,50.28900146484375 C-499.2510070800781,50.28900146484375 -247.26600646972656,50.28900146484375 -247.26600646972656,50.28900146484375 C-247.26600646972656,50.28900146484375 -247.26600646972656,-37.71699905395508 -247.26600646972656,-37.71699905395508 C-247.26600646972656,-37.71699905395508 6.999000072479248,-37.71699905395508 6.999000072479248,-37.71699905395508 C6.999000072479248,-37.71699905395508 6.999000072479248,-129.91299438476562 6.999000072479248,-129.91299438476562 C6.999000072479248,-129.91299438476562 258.9849853515625,-129.91299438476562 258.9849853515625,-129.91299438476562 C258.9849853515625,-129.91299438476562 258.9849853515625,-208.49000549316406 258.9849853515625,-208.49000549316406 C258.9849853515625,-208.49000549316406 495.0459899902344,-208.49000549316406 495.0459899902344,-208.49000549316406 C495.0459899902344,-208.49000549316406 499.25201416015625,203.2519989013672 499.25201416015625,203.2519989013672 C499.25201416015625,203.2519989013672 -499.2510070800781,208.49000549316406 -499.2510070800781,208.49000549316406z"></path></g><g opacity="1" transform="matrix(1,0,0,1,0,0)"><path fill="rgb(2,195,126)" fill-opacity="1" d=" M285.0899963378906,452.2619934082031 C285.0899963378906,452.2619934082031 285.0899963378906,295.4630126953125 285.0899963378906,295.4630126953125 C285.0899963378906,295.4630126953125 285.0899963378906,452.2619934082031 285.0899963378906,452.2619934082031z"></path></g><g opacity="1" transform="matrix(1,0,0,1,0,0)"><path stroke-linecap="round" stroke-linejoin="round" fill-opacity="0" stroke="rgb(37,50,55)" stroke-opacity="1" stroke-width="2" d=" M285.0889892578125,295.4630126953125 C285.0889892578125,295.4630126953125 285.0889892578125,452.2619934082031 285.0889892578125,452.2619934082031"></path></g><g opacity="1" transform="matrix(1,0,0,1,0,0)"><path fill="rgb(2,195,126)" fill-opacity="1" d=" M539.35498046875,450.8479919433594 C539.35498046875,450.8479919433594 539.35498046875,207.45700073242188 539.35498046875,207.45700073242188 C539.35498046875,207.45700073242188 539.35498046875,450.8479919433594 539.35498046875,450.8479919433594z"></path></g><g opacity="1" transform="matrix(1,0,0,1,0,0)"><path stroke-linecap="round" stroke-linejoin="round" fill-opacity="0" stroke="rgb(37,50,55)" stroke-opacity="1" stroke-width="2" d=" M539.35498046875,207.45700073242188 C539.35498046875,207.45700073242188 539.35498046875,450.8479919433594 539.35498046875,450.8479919433594"></path></g><g opacity="1" transform="matrix(1,0,0,1,0,0)"><path fill="rgb(2,195,126)" fill-opacity="1" d=" M791.3400268554688,449.4209899902344 C791.3400268554688,449.4209899902344 791.3400268554688,115.26100158691406 791.3400268554688,115.26100158691406 C791.3400268554688,115.26100158691406 791.3400268554688,449.4209899902344 791.3400268554688,449.4209899902344z"></path></g><g opacity="1" transform="matrix(1,0,0,1,0,0)"><path stroke-linecap="round" stroke-linejoin="round" fill-opacity="0" stroke="rgb(37,50,55)" stroke-opacity="1" stroke-width="2" d=" M791.3400268554688,115.26100158691406 C791.3400268554688,115.26100158691406 791.3400268554688,449.4219970703125 791.3400268554688,449.4219970703125"></path></g><g opacity="1" transform="matrix(1,0,0,1,145.04400634765625,279.6210021972656)"><path fill="rgb(2,195,126)" fill-opacity="1" d=" M-140.04400634765625,-15.842000007629395 C-140.04400634765625,-15.842000007629395 -111.94100189208984,15.842000007629395 -111.94100189208984,15.842000007629395 C-111.94100189208984,15.842000007629395 140.04400634765625,15.842000007629395 140.04400634765625,15.842000007629395 C140.04400634765625,15.842000007629395 111.94000244140625,-15.842000007629395 111.94000244140625,-15.842000007629395 C111.94000244140625,-15.842000007629395 -140.04400634765625,-15.842000007629395 -140.04400634765625,-15.842000007629395z"></path><path stroke-linecap="round" stroke-linejoin="round" fill-opacity="0" stroke="rgb(37,50,55)" stroke-opacity="1" stroke-width="2" d=" M-140.04400634765625,-15.842000007629395 C-140.04400634765625,-15.842000007629395 -111.94100189208984,15.842000007629395 -111.94100189208984,15.842000007629395 C-111.94100189208984,15.842000007629395 140.04400634765625,15.842000007629395 140.04400634765625,15.842000007629395 C140.04400634765625,15.842000007629395 111.94000244140625,-15.842000007629395 111.94000244140625,-15.842000007629395 C111.94000244140625,-15.842000007629395 -140.04400634765625,-15.842000007629395 -140.04400634765625,-15.842000007629395z"></path></g><g opacity="1" transform="matrix(1,0,0,1,19.052000045776367,358.72198486328125)"><path fill="rgb(2,195,126)" fill-opacity="1" d=" M-14.052000045776367,63.257999420166016 C-14.052000045776367,63.257999420166016 14.052000045776367,94.94200134277344 14.052000045776367,94.94200134277344 C14.052000045776367,94.94200134277344 14.052000045776367,-63.25899887084961 14.052000045776367,-63.25899887084961 C14.052000045776367,-63.25899887084961 -14.052000045776367,-94.94300079345703 -14.052000045776367,-94.94300079345703 C-14.052000045776367,-94.94300079345703 -14.052000045776367,63.257999420166016 -14.052000045776367,63.257999420166016z"></path><path stroke-linecap="round" stroke-linejoin="round" fill-opacity="0" stroke="rgb(37,50,55)" stroke-opacity="1" stroke-width="2" d=" M-14.052000045776367,63.257999420166016 C-14.052000045776367,63.257999420166016 14.052000045776367,94.94200134277344 14.052000045776367,94.94200134277344 C14.052000045776367,94.94200134277344 14.052000045776367,-63.25899887084961 14.052000045776367,-63.25899887084961 C14.052000045776367,-63.25899887084961 -14.052000045776367,-94.94300079345703 -14.052000045776367,-94.94300079345703 C-14.052000045776367,-94.94300079345703 -14.052000045776367,63.257999420166016 -14.052000045776367,63.257999420166016z"></path></g><g opacity="1" transform="matrix(1,0,0,1,398.1700134277344,191.61500549316406)"><path fill="rgb(2,195,126)" fill-opacity="1" d=" M-141.18499755859375,-15.842000007629395 C-141.18499755859375,-15.842000007629395 -113.08100128173828,15.842000007629395 -113.08100128173828,15.842000007629395 C-113.08100128173828,15.842000007629395 141.18499755859375,15.842000007629395 141.18499755859375,15.842000007629395 C141.18499755859375,15.842000007629395 113.08100128173828,-15.842000007629395 113.08100128173828,-15.842000007629395 C113.08100128173828,-15.842000007629395 -141.18499755859375,-15.842000007629395 -141.18499755859375,-15.842000007629395z"></path><path stroke-linecap="round" stroke-linejoin="round" fill-opacity="0" stroke="rgb(37,50,55)" stroke-opacity="1" stroke-width="2" d=" M-141.18499755859375,-15.842000007629395 C-141.18499755859375,-15.842000007629395 -113.08100128173828,15.842000007629395 -113.08100128173828,15.842000007629395 C-113.08100128173828,15.842000007629395 141.18499755859375,15.842000007629395 141.18499755859375,15.842000007629395 C141.18499755859375,15.842000007629395 113.08100128173828,-15.842000007629395 113.08100128173828,-15.842000007629395 C113.08100128173828,-15.842000007629395 -141.18499755859375,-15.842000007629395 -141.18499755859375,-15.842000007629395z"></path></g><g opacity="1" transform="matrix(1,0,0,1,651.2949829101562,99.41899871826172)"><path fill="rgb(2,195,126)" fill-opacity="1" d=" M-140.0449981689453,-15.842000007629395 C-140.0449981689453,-15.842000007629395 -111.94100189208984,15.842000007629395 -111.94100189208984,15.842000007629395 C-111.94100189208984,15.842000007629395 140.04400634765625,15.842000007629395 140.04400634765625,15.842000007629395 C140.04400634765625,15.842000007629395 111.94000244140625,-15.842000007629395 111.94000244140625,-15.842000007629395 C111.94000244140625,-15.842000007629395 -140.0449981689453,-15.842000007629395 -140.0449981689453,-15.842000007629395z"></path><path stroke-linecap="round" stroke-linejoin="round" fill-opacity="0" stroke="rgb(37,50,55)" stroke-opacity="1" stroke-width="2" d=" M-140.0449981689453,-15.842000007629395 C-140.0449981689453,-15.842000007629395 -111.94100189208984,15.842000007629395 -111.94100189208984,15.842000007629395 C-111.94100189208984,15.842000007629395 140.04400634765625,15.842000007629395 140.04400634765625,15.842000007629395 C140.04400634765625,15.842000007629395 111.94000244140625,-15.842000007629395 111.94000244140625,-15.842000007629395 C111.94000244140625,-15.842000007629395 -140.0449981689453,-15.842000007629395 -140.0449981689453,-15.842000007629395z"></path></g><g opacity="1" transform="matrix(1,0,0,1,895.3189697265625,20.841999053955078)"><path fill="rgb(2,195,126)" fill-opacity="1" d=" M-132.08299255371094,-15.842000007629395 C-132.08299255371094,-15.842000007629395 -103.97899627685547,15.842000007629395 -103.97899627685547,15.842000007629395 C-103.97899627685547,15.842000007629395 132.08299255371094,15.842000007629395 132.08299255371094,15.842000007629395 C132.08299255371094,15.842000007629395 103.97899627685547,-15.842000007629395 103.97899627685547,-15.842000007629395 C103.97899627685547,-15.842000007629395 -132.08299255371094,-15.842000007629395 -132.08299255371094,-15.842000007629395z"></path><path stroke-linecap="round" stroke-linejoin="round" fill-opacity="0" stroke="rgb(37,50,55)" stroke-opacity="1" stroke-width="2" d=" M-132.08299255371094,-15.842000007629395 C-132.08299255371094,-15.842000007629395 -103.97899627685547,15.842000007629395 -103.97899627685547,15.842000007629395 C-103.97899627685547,15.842000007629395 132.08299255371094,15.842000007629395 132.08299255371094,15.842000007629395 C132.08299255371094,15.842000007629395 103.97899627685547,-15.842000007629395 103.97899627685547,-15.842000007629395 C103.97899627685547,-15.842000007629395 -132.08299255371094,-15.842000007629395 -132.08299255371094,-15.842000007629395z"></path></g></g><g transform="matrix(0.9559539556503296,0.2935166656970978,-0.2935166656970978,0.9559539556503296,525.5548706054688,85.31993103027344)" opacity="1" style="display: block;"><g opacity="1" transform="matrix(1,0,0,1,207.93099975585938,40.63199996948242)"><path fill="rgb(212,212,212)" fill-opacity="1" d=" M-26.426000595092773,22.60099983215332 C-26.426000595092773,22.60099983215332 -22.033000946044922,2.888000011444092 -22.033000946044922,2.888000011444092 C-23.4689998626709,-8.093000411987305 -21.805999755859375,-17.49799919128418 -17.43400001525879,-25.527000427246094 C-17.43400001525879,-25.527000427246094 -4.9070000648498535,-34.020999908447266 -4.9070000648498535,-34.020999908447266 C-0.7459999918937683,-35.63199996948242 2.2049999237060547,-34.930999755859375 3.5329999923706055,-31.131000518798828 C8.51099967956543,-31.50200080871582 11.289999961853027,-28.850000381469727 12.064000129699707,-23.43899917602539 C18.7810001373291,-25.11199951171875 20.356000900268555,-20.06999969482422 20.256999969482422,-12.84000015258789 C25.42799949645996,-8.052000045776367 26.426000595092773,-2.1730000972747803 22.44499969482422,5.00600004196167 C22.44499969482422,5.00600004196167 6.361000061035156,21.163999557495117 6.361000061035156,21.163999557495117 C6.361000061035156,21.163999557495117 1.305999994277954,35.63199996948242 1.305999994277954,35.63199996948242 C1.305999994277954,35.63199996948242 -26.426000595092773,22.60099983215332 -26.426000595092773,22.60099983215332z"></path><path stroke-linecap="butt" stroke-linejoin="miter" fill-opacity="0" stroke-miterlimit="10" stroke="rgb(37,50,55)" stroke-opacity="1" stroke-width="2" d=" M-26.426000595092773,22.60099983215332 C-26.426000595092773,22.60099983215332 -22.033000946044922,2.888000011444092 -22.033000946044922,2.888000011444092 C-23.4689998626709,-8.093000411987305 -21.805999755859375,-17.49799919128418 -17.43400001525879,-25.527000427246094 C-17.43400001525879,-25.527000427246094 -4.9070000648498535,-34.020999908447266 -4.9070000648498535,-34.020999908447266 C-0.7459999918937683,-35.63199996948242 2.2049999237060547,-34.930999755859375 3.5329999923706055,-31.131000518798828 C8.51099967956543,-31.50200080871582 11.289999961853027,-28.850000381469727 12.064000129699707,-23.43899917602539 C18.7810001373291,-25.11199951171875 20.356000900268555,-20.06999969482422 20.256999969482422,-12.84000015258789 C25.42799949645996,-8.052000045776367 26.426000595092773,-2.1730000972747803 22.44499969482422,5.00600004196167 C22.44499969482422,5.00600004196167 6.361000061035156,21.163999557495117 6.361000061035156,21.163999557495117 C6.361000061035156,21.163999557495117 1.305999994277954,35.63199996948242 1.305999994277954,35.63199996948242 C1.305999994277954,35.63199996948242 -26.426000595092773,22.60099983215332 -26.426000595092773,22.60099983215332z"></path></g><g opacity="1" transform="matrix(1,0,0,1,112.23699951171875,137.93099975585938)"><path fill="rgb(255,255,255)" fill-opacity="1" d=" M-65.03600311279297,-3.440999984741211 C-65.03600311279297,-3.440999984741211 12.104000091552734,22.652999877929688 12.104000091552734,22.652999877929688 C12.104000091552734,22.652999877929688 68.65899658203125,-78.77100372314453 68.65899658203125,-78.77100372314453 C68.65899658203125,-78.77100372314453 107.23699951171875,-64.0999984741211 107.23699951171875,-64.0999984741211 C107.23699951171875,-64.0999984741211 46.209999084472656,58.470001220703125 46.209999084472656,58.470001220703125 C38.064998626708984,76.51499938964844 21.398000717163086,78.77100372314453 1.2649999856948853,74.60399627685547 C1.2649999856948853,74.60399627685547 -80.05599975585938,53.70100021362305 -80.05599975585938,53.70100021362305 C-96.625,49.44200134277344 -107.23699951171875,32.75899887084961 -103.22799682617188,16.128999710083008 C-99.85800170898438,2.1449999809265137 -87.15699768066406,-8.756999969482422 -65.03600311279297,-3.440999984741211z"></path><path stroke-linecap="round" stroke-linejoin="round" fill-opacity="0" stroke="rgb(37,50,55)" stroke-opacity="1" stroke-width="2" d=" M-65.03600311279297,-3.440999984741211 C-65.03600311279297,-3.440999984741211 12.104000091552734,22.652999877929688 12.104000091552734,22.652999877929688 C12.104000091552734,22.652999877929688 68.65899658203125,-78.77100372314453 68.65899658203125,-78.77100372314453 C68.65899658203125,-78.77100372314453 107.23699951171875,-64.0999984741211 107.23699951171875,-64.0999984741211 C107.23699951171875,-64.0999984741211 46.209999084472656,58.470001220703125 46.209999084472656,58.470001220703125 C38.064998626708984,76.51499938964844 21.398000717163086,78.77100372314453 1.2649999856948853,74.60399627685547 C1.2649999856948853,74.60399627685547 -80.05599975585938,53.70100021362305 -80.05599975585938,53.70100021362305 C-96.625,49.44200134277344 -107.23699951171875,32.75899887084961 -103.22799682617188,16.128999710083008 C-99.85800170898438,2.1449999809265137 -87.15699768066406,-8.756999969482422 -65.03600311279297,-3.440999984741211z"></path></g><g opacity="1" transform="matrix(1,0,0,1,199.71499633789062,66.82599639892578)"><path fill="rgb(255,255,255)" fill-opacity="1" d=" M-20.611000061035156,-20.58099937438965 C-20.611000061035156,-20.58099937438965 -29.81599998474121,-3.8289999961853027 -29.81599998474121,-3.8289999961853027 C-29.81599998474121,-3.8289999961853027 18.702999114990234,20.58099937438965 18.702999114990234,20.58099937438965 C18.702999114990234,20.58099937438965 29.81599998474121,2.7809998989105225 29.81599998474121,2.7809998989105225 C29.81599998474121,2.7809998989105225 -20.611000061035156,-20.58099937438965 -20.611000061035156,-20.58099937438965z"></path><path stroke-linecap="round" stroke-linejoin="round" fill-opacity="0" stroke="rgb(37,50,55)" stroke-opacity="1" stroke-width="2" d=" M-20.611000061035156,-20.58099937438965 C-20.611000061035156,-20.58099937438965 -29.81599998474121,-3.8289999961853027 -29.81599998474121,-3.8289999961853027 C-29.81599998474121,-3.8289999961853027 18.702999114990234,20.58099937438965 18.702999114990234,20.58099937438965 C18.702999114990234,20.58099937438965 29.81599998474121,2.7809998989105225 29.81599998474121,2.7809998989105225 C29.81599998474121,2.7809998989105225 -20.611000061035156,-20.58099937438965 -20.611000061035156,-20.58099937438965z"></path></g></g><g transform="matrix(1,0,0,1,352.96099853515625,73.98501586914062)" opacity="1" style="display: block;"><g opacity="1" transform="matrix(1,0,0,1,91.53800201416016,240.98599243164062)"><path fill="rgb(2,195,126)" fill-opacity="1" d=" M86.53800201416016,-85.3479995727539 C70.1240005493164,-94.93099975585938 54.082000732421875,-103.23500061035156 38.77899932861328,-109.00399780273438 C38.77899932861328,-109.00399780273438 -32.54399871826172,-113.18699645996094 -32.54399871826172,-113.18699645996094 C-51.266998291015625,-105.58200073242188 -69.41699981689453,-96.44499969482422 -86.53800201416016,-84.56300354003906 C-86.53800201416016,-84.56300354003906 -45.74599838256836,107.91100311279297 -45.74599838256836,107.91100311279297 C2.1679999828338623,113.18699645996094 40.42499923706055,112.73200225830078 64.39800262451172,103.80000305175781 C64.39800262451172,103.80000305175781 86.53800201416016,-85.3479995727539 86.53800201416016,-85.3479995727539z"></path><path stroke-linecap="round" stroke-linejoin="round" fill-opacity="0" stroke="rgb(37,50,55)" stroke-opacity="1" stroke-width="2" d=" M86.53800201416016,-85.3479995727539 C70.1240005493164,-94.93099975585938 54.082000732421875,-103.23500061035156 38.77899932861328,-109.00399780273438 C38.77899932861328,-109.00399780273438 -32.54399871826172,-113.18699645996094 -32.54399871826172,-113.18699645996094 C-51.266998291015625,-105.58200073242188 -69.41699981689453,-96.44499969482422 -86.53800201416016,-84.56300354003906 C-86.53800201416016,-84.56300354003906 -45.74599838256836,107.91100311279297 -45.74599838256836,107.91100311279297 C2.1679999828338623,113.18699645996094 40.42499923706055,112.73200225830078 64.39800262451172,103.80000305175781 C64.39800262451172,103.80000305175781 86.53800201416016,-85.3479995727539 86.53800201416016,-85.3479995727539z"></path></g><g opacity="1" transform="matrix(1,0,0,1,91.62100219726562,121.13500213623047)"><path fill="rgb(212,212,212)" fill-opacity="1" d=" M-24.538000106811523,-36.18600082397461 C-24.538000106811523,-36.18600082397461 -21.496999740600586,-3.177999973297119 -21.496999740600586,-3.177999973297119 C-21.496999740600586,-3.177999973297119 12.274999618530273,36.18600082397461 12.274999618530273,36.18600082397461 C12.274999618530273,36.18600082397461 24.538000106811523,11.975000381469727 24.538000106811523,11.975000381469727 C24.538000106811523,11.975000381469727 23.81399917602539,-19.920000076293945 23.81399917602539,-19.920000076293945 C23.81399917602539,-19.920000076293945 -24.538000106811523,-36.18600082397461 -24.538000106811523,-36.18600082397461z"></path><path stroke-linecap="butt" stroke-linejoin="miter" fill-opacity="0" stroke-miterlimit="10" stroke="rgb(37,50,55)" stroke-opacity="1" stroke-width="2" d=" M-24.538000106811523,-36.18600082397461 C-24.538000106811523,-36.18600082397461 -21.496999740600586,-3.177999973297119 -21.496999740600586,-3.177999973297119 C-21.496999740600586,-3.177999973297119 12.274999618530273,36.18600082397461 12.274999618530273,36.18600082397461 C12.274999618530273,36.18600082397461 24.538000106811523,11.975000381469727 24.538000106811523,11.975000381469727 C24.538000106811523,11.975000381469727 23.81399917602539,-19.920000076293945 23.81399917602539,-19.920000076293945 C23.81399917602539,-19.920000076293945 -24.538000106811523,-36.18600082397461 -24.538000106811523,-36.18600082397461z"></path></g><g opacity="1" transform="matrix(1,0,0,1,76.7509994506836,136.81700134277344)"><path fill="rgb(255,255,255)" fill-opacity="1" d=" M27.145000457763672,20.503999710083008 C27.145000457763672,20.503999710083008 9.937000274658203,11.465999603271484 9.937000274658203,11.465999603271484 C9.937000274658203,11.465999603271484 0.7400000095367432,25.21299934387207 0.7400000095367432,25.21299934387207 C0.7400000095367432,25.21299934387207 -27.145000457763672,-10.416999816894531 -27.145000457763672,-10.416999816894531 C-27.145000457763672,-10.416999816894531 -14.100000381469727,-25.05699920654297 -14.100000381469727,-25.05699920654297 C-14.100000381469727,-25.05699920654297 -7.211999893188477,-25.21299934387207 -7.211999893188477,-25.21299934387207 C-7.211999893188477,-25.21299934387207 -6.625999927520752,-18.860000610351562 -6.625999927520752,-18.860000610351562 C-6.625999927520752,-18.860000610351562 27.145000457763672,20.503999710083008 27.145000457763672,20.503999710083008z"></path><path stroke-linecap="round" stroke-linejoin="round" fill-opacity="0" stroke="rgb(37,50,55)" stroke-opacity="1" stroke-width="2" d=" M27.145000457763672,20.503999710083008 C27.145000457763672,20.503999710083008 9.937000274658203,11.465999603271484 9.937000274658203,11.465999603271484 C9.937000274658203,11.465999603271484 0.7400000095367432,25.21299934387207 0.7400000095367432,25.21299934387207 C0.7400000095367432,25.21299934387207 -27.145000457763672,-10.416999816894531 -27.145000457763672,-10.416999816894531 C-27.145000457763672,-10.416999816894531 -14.100000381469727,-25.05699920654297 -14.100000381469727,-25.05699920654297 C-14.100000381469727,-25.05699920654297 -7.211999893188477,-25.21299934387207 -7.211999893188477,-25.21299934387207 C-7.211999893188477,-25.21299934387207 -6.625999927520752,-18.860000610351562 -6.625999927520752,-18.860000610351562 C-6.625999927520752,-18.860000610351562 27.145000457763672,20.503999710083008 27.145000457763672,20.503999710083008z"></path></g><g opacity="1" transform="matrix(1,0,0,1,117.10600280761719,141.9929962158203)"><path fill="rgb(255,255,255)" fill-opacity="1" d=" M-13.210000038146973,15.32800006866455 C-13.210000038146973,15.32800006866455 -1.5679999589920044,7.570000171661377 -1.5679999589920044,7.570000171661377 C-1.5679999589920044,7.570000171661377 11.807000160217285,20.48200035095215 11.807000160217285,20.48200035095215 C11.807000160217285,20.48200035095215 13.210000038146973,-10.01099967956543 13.210000038146973,-10.01099967956543 C13.210000038146973,-10.01099967956543 -1.2100000381469727,-20.48200035095215 -1.2100000381469727,-20.48200035095215 C-1.2100000381469727,-20.48200035095215 -0.9470000267028809,-8.883999824523926 -0.9470000267028809,-8.883999824523926 C-0.9470000267028809,-8.883999824523926 -13.210000038146973,15.32800006866455 -13.210000038146973,15.32800006866455z"></path><path stroke-linecap="round" stroke-linejoin="round" fill-opacity="0" stroke="rgb(37,50,55)" stroke-opacity="1" stroke-width="2" d=" M-13.210000038146973,15.32800006866455 C-13.210000038146973,15.32800006866455 -1.5679999589920044,7.570000171661377 -1.5679999589920044,7.570000171661377 C-1.5679999589920044,7.570000171661377 11.807000160217285,20.48200035095215 11.807000160217285,20.48200035095215 C11.807000160217285,20.48200035095215 13.210000038146973,-10.01099967956543 13.210000038146973,-10.01099967956543 C13.210000038146973,-10.01099967956543 -1.2100000381469727,-20.48200035095215 -1.2100000381469727,-20.48200035095215 C-1.2100000381469727,-20.48200035095215 -0.9470000267028809,-8.883999824523926 -0.9470000267028809,-8.883999824523926 C-0.9470000267028809,-8.883999824523926 -13.210000038146973,15.32800006866455 -13.210000038146973,15.32800006866455z"></path></g><g opacity="1" transform="matrix(1,0,0,1,100.71900177001953,359.94500732421875)"><path fill="rgb(37,50,55)" fill-opacity="1" d=" M55.21799850463867,-15.159000396728516 C55.21799850463867,-15.159000396728516 55.65399932861328,4.090000152587891 55.65399932861328,4.090000152587891 C22.058000564575195,15.159000396728516 -15.47700023651123,14.739999771118164 -55.65399932861328,6.617000102996826 C-55.65399932861328,6.617000102996826 -54.928001403808594,-11.04800033569336 -54.928001403808594,-11.04800033569336 C-12.003999710083008,-5.494999885559082 25.375,-6.125999927520752 55.21799850463867,-15.159000396728516z"></path><path stroke-linecap="round" stroke-linejoin="round" fill-opacity="0" stroke="rgb(37,50,55)" stroke-opacity="1" stroke-width="2" d=" M55.21799850463867,-15.159000396728516 C55.21799850463867,-15.159000396728516 55.65399932861328,4.090000152587891 55.65399932861328,4.090000152587891 C22.058000564575195,15.159000396728516 -15.47700023651123,14.739999771118164 -55.65399932861328,6.617000102996826 C-55.65399932861328,6.617000102996826 -54.928001403808594,-11.04800033569336 -54.928001403808594,-11.04800033569336 C-12.003999710083008,-5.494999885559082 25.375,-6.125999927520752 55.21799850463867,-15.159000396728516z"></path></g><g opacity="1" transform="matrix(1,0,0,1,101.5199966430664,400.77899169921875)"><path fill="rgb(37,50,55)" fill-opacity="1" d=" M54.85300064086914,-36.74300003051758 C54.85300064086914,-36.74300003051758 62.097999572753906,33.92599868774414 62.097999572753906,33.92599868774414 C62.097999572753906,33.92599868774414 -62.097999572753906,36.74300003051758 -62.097999572753906,36.74300003051758 C-62.097999572753906,36.74300003051758 -56.45600128173828,-34.21699905395508 -56.45600128173828,-34.21699905395508 C-56.45600128173828,-34.21699905395508 54.85300064086914,-36.74300003051758 54.85300064086914,-36.74300003051758z"></path><path stroke-linecap="round" stroke-linejoin="round" fill-opacity="0" stroke="rgb(37,50,55)" stroke-opacity="1" stroke-width="2" d=" M54.85300064086914,-36.74300003051758 C54.85300064086914,-36.74300003051758 62.097999572753906,33.92599868774414 62.097999572753906,33.92599868774414 C62.097999572753906,33.92599868774414 -62.097999572753906,36.74300003051758 -62.097999572753906,36.74300003051758 C-62.097999572753906,36.74300003051758 -56.45600128173828,-34.21699905395508 -56.45600128173828,-34.21699905395508 C-56.45600128173828,-34.21699905395508 54.85300064086914,-36.74300003051758 54.85300064086914,-36.74300003051758z"></path></g><g opacity="1" transform="matrix(1,0,0,1,138.12100219726562,488.8280029296875)"><path fill="rgb(37,50,55)" fill-opacity="1" d=" M24.636999130249023,-61.590999603271484 C24.636999130249023,-61.590999603271484 34.79600143432617,57.35300064086914 34.79600143432617,57.35300064086914 C34.79600143432617,57.35300064086914 -18.285999298095703,61.94200134277344 -18.285999298095703,61.94200134277344 C-18.285999298095703,61.94200134277344 -34.79600143432617,-61.94200134277344 -34.79600143432617,-61.94200134277344 C-34.79600143432617,-61.94200134277344 24.636999130249023,-61.590999603271484 24.636999130249023,-61.590999603271484z"></path><path stroke-linecap="round" stroke-linejoin="round" fill-opacity="0" stroke="rgb(37,50,55)" stroke-opacity="1" stroke-width="2" d=" M24.636999130249023,-61.590999603271484 C24.636999130249023,-61.590999603271484 34.79600143432617,57.35300064086914 34.79600143432617,57.35300064086914 C34.79600143432617,57.35300064086914 -18.285999298095703,61.94200134277344 -18.285999298095703,61.94200134277344 C-18.285999298095703,61.94200134277344 -34.79600143432617,-61.94200134277344 -34.79600143432617,-61.94200134277344 C-34.79600143432617,-61.94200134277344 24.636999130249023,-61.590999603271484 24.636999130249023,-61.590999603271484z"></path></g><g opacity="1" transform="matrix(1,0,0,1,152.7469940185547,620.4169921875)"><path fill="rgb(37,50,55)" fill-opacity="1" d=" M20.108999252319336,-76.89299774169922 C20.108999252319336,-76.89299774169922 33.327999114990234,68.8239974975586 33.327999114990234,68.8239974975586 C22.06100082397461,75.3270034790039 6.678999900817871,76.89299774169922 -13.234999656677246,73.02300262451172 C-13.234999656677246,73.02300262451172 -33.327999114990234,-72.76799774169922 -33.327999114990234,-72.76799774169922 C-33.327999114990234,-72.76799774169922 20.108999252319336,-76.89299774169922 20.108999252319336,-76.89299774169922z"></path><path stroke-linecap="round" stroke-linejoin="round" fill-opacity="0" stroke="rgb(37,50,55)" stroke-opacity="1" stroke-width="2" d=" M20.108999252319336,-76.89299774169922 C20.108999252319336,-76.89299774169922 33.327999114990234,68.8239974975586 33.327999114990234,68.8239974975586 C22.06100082397461,75.3270034790039 6.678999900817871,76.89299774169922 -13.234999656677246,73.02300262451172 C-13.234999656677246,73.02300262451172 -33.327999114990234,-72.76799774169922 -33.327999114990234,-72.76799774169922 C-33.327999114990234,-72.76799774169922 20.108999252319336,-76.89299774169922 20.108999252319336,-76.89299774169922z"></path></g><g opacity="1" transform="matrix(1,0,0,1,68.86499786376953,493.25299072265625)"><path fill="rgb(37,50,55)" fill-opacity="1" d=" M37.143001556396484,-61.75400161743164 C37.143001556396484,-61.75400161743164 17.094999313354492,63.28300094604492 17.094999313354492,63.28300094604492 C17.094999313354492,63.28300094604492 -37.143001556396484,59.518001556396484 -37.143001556396484,59.518001556396484 C-37.143001556396484,59.518001556396484 -28.843000411987305,-63.28300094604492 -28.843000411987305,-63.28300094604492 C-28.843000411987305,-63.28300094604492 37.143001556396484,-61.75400161743164 37.143001556396484,-61.75400161743164z"></path><path stroke-linecap="round" stroke-linejoin="round" fill-opacity="0" stroke="rgb(37,50,55)" stroke-opacity="1" stroke-width="2" d=" M37.143001556396484,-61.75400161743164 C37.143001556396484,-61.75400161743164 17.094999313354492,63.28300094604492 17.094999313354492,63.28300094604492 C17.094999313354492,63.28300094604492 -37.143001556396484,59.518001556396484 -37.143001556396484,59.518001556396484 C-37.143001556396484,59.518001556396484 -28.843000411987305,-63.28300094604492 -28.843000411987305,-63.28300094604492 C-28.843000411987305,-63.28300094604492 37.143001556396484,-61.75400161743164 37.143001556396484,-61.75400161743164z"></path></g><g opacity="1" transform="matrix(1,0,0,1,53.7760009765625,623.864013671875)"><path fill="rgb(37,50,55)" fill-opacity="1" d=" M32.55799865722656,-69.66200256347656 C32.55799865722656,-69.66200256347656 8.9350004196167,72.93099975585938 8.9350004196167,72.93099975585938 C-4.664999961853027,74.63099670410156 -18.516000747680664,73.30799865722656 -32.55799865722656,69.68199920654297 C-32.55799865722656,69.68199920654297 -21.815000534057617,-74.62999725341797 -21.815000534057617,-74.62999725341797 C-21.815000534057617,-74.62999725341797 32.55799865722656,-69.66200256347656 32.55799865722656,-69.66200256347656z"></path><path stroke-linecap="round" stroke-linejoin="round" fill-opacity="0" stroke="rgb(37,50,55)" stroke-opacity="1" stroke-width="2" d=" M32.55799865722656,-69.66200256347656 C32.55799865722656,-69.66200256347656 8.9350004196167,72.93099975585938 8.9350004196167,72.93099975585938 C-4.664999961853027,74.63099670410156 -18.516000747680664,73.30799865722656 -32.55799865722656,69.68199920654297 C-32.55799865722656,69.68199920654297 -21.815000534057617,-74.62999725341797 -21.815000534057617,-74.62999725341797 C-21.815000534057617,-74.62999725341797 32.55799865722656,-69.66200256347656 32.55799865722656,-69.66200256347656z"></path></g><g opacity="1" transform="matrix(1,0,0,1,187.2310028076172,713.7329711914062)"><path fill="rgb(37,50,55)" fill-opacity="1" d=" M-6.257999897003174,-25.584999084472656 C-1.5770000219345093,-12.12399959564209 9.970000267028809,-2.7909998893737793 24.64699935913086,4.6579999923706055 C36.702999114990234,11.875 36.28200149536133,17.736000061035156 33.290000915527344,23.31800079345703 C14.678000450134277,25.584999084472656 -7.888999938964844,21.799999237060547 -35.91899871826172,9.657999992370605 C-35.91899871826172,9.657999992370605 -36.702999114990234,-24.893999099731445 -36.702999114990234,-24.893999099731445 C-36.702999114990234,-24.893999099731445 -6.257999897003174,-25.584999084472656 -6.257999897003174,-25.584999084472656z"></path><path stroke-linecap="round" stroke-linejoin="round" fill-opacity="0" stroke="rgb(37,50,55)" stroke-opacity="1" stroke-width="2" d=" M-6.257999897003174,-25.584999084472656 C-1.5770000219345093,-12.12399959564209 9.970000267028809,-2.7909998893737793 24.64699935913086,4.6579999923706055 C36.702999114990234,11.875 36.28200149536133,17.736000061035156 33.290000915527344,23.31800079345703 C14.678000450134277,25.584999084472656 -7.888999938964844,21.799999237060547 -35.91899871826172,9.657999992370605 C-35.91899871826172,9.657999992370605 -36.702999114990234,-24.893999099731445 -36.702999114990234,-24.893999099731445 C-36.702999114990234,-24.893999099731445 -6.257999897003174,-25.584999084472656 -6.257999897003174,-25.584999084472656z"></path></g><g opacity="1" transform="matrix(1,0,0,1,58.387001037597656,710.4210205078125)"><path fill="rgb(37,50,55)" fill-opacity="1" d=" M-3.002000093460083,-25.329999923706055 C0.31700000166893005,-11.470000267028809 10.878999710083008,-1.0360000133514404 24.743000030517578,7.835999965667725 C36.020999908447266,16.21500015258789 35.02000045776367,22.006000518798828 31.488000869750977,27.26300048828125 C12.743000030517578,27.667999267578125 -9.336000442504883,21.658000946044922 -36.02000045776367,6.789999961853027 C-36.02000045776367,6.789999961853027 -33.3650016784668,-27.66900062561035 -33.3650016784668,-27.66900062561035 C-33.3650016784668,-27.66900062561035 -3.002000093460083,-25.329999923706055 -3.002000093460083,-25.329999923706055z"></path><path stroke-linecap="round" stroke-linejoin="round" fill-opacity="0" stroke="rgb(37,50,55)" stroke-opacity="1" stroke-width="2" d=" M-3.002000093460083,-25.329999923706055 C0.31700000166893005,-11.470000267028809 10.878999710083008,-1.0360000133514404 24.743000030517578,7.835999965667725 C36.020999908447266,16.21500015258789 35.02000045776367,22.006000518798828 31.488000869750977,27.26300048828125 C12.743000030517578,27.667999267578125 -9.336000442504883,21.658000946044922 -36.02000045776367,6.789999961853027 C-36.02000045776367,6.789999961853027 -33.3650016784668,-27.66900062561035 -33.3650016784668,-27.66900062561035 C-33.3650016784668,-27.66900062561035 -3.002000093460083,-25.329999923706055 -3.002000093460083,-25.329999923706055z"></path></g><g opacity="1" transform="matrix(1,0,0,1,101.11299896240234,174.36399841308594)"><path fill="rgb(255,255,255)" fill-opacity="1" d=" M14.425000190734863,-24.802000045776367 C14.425000190734863,-24.802000045776367 2.302000045776367,26.08099937438965 2.302000045776367,26.08099937438965 C2.302000045776367,26.08099937438965 -14.425000190734863,-26.08099937438965 -14.425000190734863,-26.08099937438965 C-14.425000190734863,-26.08099937438965 2.7829999923706055,-17.042999267578125 2.7829999923706055,-17.042999267578125 C2.7829999923706055,-17.042999267578125 14.425000190734863,-24.802000045776367 14.425000190734863,-24.802000045776367z"></path><path stroke-linecap="round" stroke-linejoin="round" fill-opacity="0" stroke="rgb(37,50,55)" stroke-opacity="1" stroke-width="2" d=" M14.425000190734863,-24.802000045776367 C14.425000190734863,-24.802000045776367 2.302000045776367,26.08099937438965 2.302000045776367,26.08099937438965 C2.302000045776367,26.08099937438965 -14.425000190734863,-26.08099937438965 -14.425000190734863,-26.08099937438965 C-14.425000190734863,-26.08099937438965 2.7829999923706055,-17.042999267578125 2.7829999923706055,-17.042999267578125 C2.7829999923706055,-17.042999267578125 14.425000190734863,-24.802000045776367 14.425000190734863,-24.802000045776367z"></path></g><g opacity="1" transform="matrix(1,0,0,1,113.80999755859375,187.0959930419922)"><path fill="rgb(255,255,255)" fill-opacity="1" d=" M7.547999858856201,-27.71299934387207 C7.547999858856201,-27.71299934387207 -7.547999858856201,27.71299934387207 -7.547999858856201,27.71299934387207"></path><path stroke-linecap="round" stroke-linejoin="round" fill-opacity="0" stroke="rgb(37,50,55)" stroke-opacity="1" stroke-width="2" d=" M7.547999858856201,-27.71299934387207 C7.547999858856201,-27.71299934387207 -7.547999858856201,27.71299934387207 -7.547999858856201,27.71299934387207"></path></g><g opacity="1" transform="matrix(1,0,0,1,89.39600372314453,184.26100158691406)"><path fill="rgb(255,255,255)" fill-opacity="1" d=" M-6.854000091552734,-20.733999252319336 C-6.854000091552734,-20.733999252319336 6.854000091552734,20.733999252319336 6.854000091552734,20.733999252319336"></path><path stroke-linecap="round" stroke-linejoin="round" fill-opacity="0" stroke="rgb(37,50,55)" stroke-opacity="1" stroke-width="2" d=" M-6.854000091552734,-20.733999252319336 C-6.854000091552734,-20.733999252319336 6.854000091552734,20.733999252319336 6.854000091552734,20.733999252319336"></path></g><g opacity="1" transform="matrix(1,0,0,1,116.47000122070312,337.24700927734375)"><path stroke-linecap="round" stroke-linejoin="round" fill-opacity="0" stroke="rgb(37,50,55)" stroke-opacity="1" stroke-width="2" d=" M35.29199981689453,-3.5510001182556152 C13.432000160217285,2.9690001010894775 -10.291999816894531,3.5510001182556152 -35.29199981689453,0.05900000035762787"></path></g><g opacity="1" transform="matrix(1,0,0,1,91.49400329589844,103.9209976196289)"><path fill="rgb(37,50,55)" fill-opacity="1" d=" M23.827302932739258,-10.809694290161133 C23.827302932739258,-10.809694290161133 24.09380531311035,7.159016132354736 24.09380531311035,7.159016132354736 C-0.000112885631097015,6.495583534240723 -14.514533996582031,-0.5117045044898987 -23.290000915527344,-13.439000129699707 C-5.03719425201416,-9.141424179077148 7.627302646636963,-10.181694030761719 23.827302932739258,-10.809694290161133z"></path><path stroke-linecap="round" stroke-linejoin="round" fill-opacity="0" stroke="rgb(37,50,55)" stroke-opacity="1" stroke-width="2" d=" M23.827302932739258,-10.809694290161133 C23.827302932739258,-10.809694290161133 24.09380531311035,7.159016132354736 24.09380531311035,7.159016132354736 C-0.000112885631097015,6.495583534240723 -14.514533996582031,-0.5117045044898987 -23.290000915527344,-13.439000129699707 C-5.03719425201416,-9.141424179077148 7.627302646636963,-10.181694030761719 23.827302932739258,-10.809694290161133z"></path></g></g><g transform="matrix(0.9781306982040405,-0.20799118280410767,0.20799118280410767,0.9781306982040405,490.73040771484375,177.68885803222656)" opacity="1" style="display: block;"><g opacity="1" transform="matrix(1,0,0,1,76.98500061035156,52.66899871826172)"><path fill="rgb(2,195,126)" fill-opacity="1" d=" M68.29299926757812,1.965000033378601 C68.29299926757812,1.965000033378601 -66.6719970703125,17.16900062561035 -66.6719970703125,17.16900062561035 C-66.6719970703125,17.16900062561035 -68.29299926757812,4.317999839782715 -68.29299926757812,4.317999839782715 C-68.29299926757812,4.317999839782715 65.87999725341797,-17.16900062561035 65.87999725341797,-17.16900062561035 C65.87999725341797,-17.16900062561035 68.29299926757812,1.965000033378601 68.29299926757812,1.965000033378601z"></path><path stroke-linecap="round" stroke-linejoin="round" fill-opacity="0" stroke="rgb(37,50,55)" stroke-opacity="1" stroke-width="2" d=" M68.29299926757812,1.965000033378601 C68.29299926757812,1.965000033378601 -66.6719970703125,17.16900062561035 -66.6719970703125,17.16900062561035 C-66.6719970703125,17.16900062561035 -68.29299926757812,4.317999839782715 -68.29299926757812,4.317999839782715 C-68.29299926757812,4.317999839782715 65.87999725341797,-17.16900062561035 65.87999725341797,-17.16900062561035 C65.87999725341797,-17.16900062561035 68.29299926757812,1.965000033378601 68.29299926757812,1.965000033378601z"></path></g><g opacity="1" transform="matrix(1,0,0,1,194.14700317382812,34.42399978637695)"><path fill="rgb(2,195,126)" fill-opacity="1" d=" M95.01100158691406,15.008999824523926 C95.01100158691406,15.008999824523926 -96.58499908447266,29.42300033569336 -96.58499908447266,29.42300033569336 C-99.93499755859375,22.013999938964844 -101.08000183105469,13.680000305175781 -99.88700103759766,4.366000175476074 C-99.88700103759766,4.366000175476074 88.0479965209961,-29.42300033569336 88.0479965209961,-29.42300033569336 C98.12100219726562,-19.738000869750977 101.08000183105469,2.9700000286102295 95.01100158691406,15.008999824523926z"></path><path stroke-linecap="round" stroke-linejoin="round" fill-opacity="0" stroke="rgb(37,50,55)" stroke-opacity="1" stroke-width="2" d=" M95.01100158691406,15.008999824523926 C95.01100158691406,15.008999824523926 -96.58499908447266,29.42300033569336 -96.58499908447266,29.42300033569336 C-99.93499755859375,22.013999938964844 -101.08000183105469,13.680000305175781 -99.88700103759766,4.366000175476074 C-99.88700103759766,4.366000175476074 88.0479965209961,-29.42300033569336 88.0479965209961,-29.42300033569336 C98.12100219726562,-19.738000869750977 101.08000183105469,2.9700000286102295 95.01100158691406,15.008999824523926z"></path></g><g opacity="1" transform="matrix(1,0,0,1,288.05999755859375,27.216999053955078)"><path fill="rgb(255,255,255)" fill-opacity="1" d=" M-5.864999771118164,-22.216999053955078 C-5.864999771118164,-22.216999053955078 -11.053000450134277,-12.95300006866455 -9.072999954223633,0.9559999704360962 C-7.0929999351501465,14.86299991607666 1.0980000495910645,22.216999053955078 1.0980000495910645,22.216999053955078 C1.0980000495910645,22.216999053955078 11.053999900817871,10.567999839782715 8.385000228881836,-3.2860000133514404 C5.7769999504089355,-16.82699966430664 -5.864999771118164,-22.216999053955078 -5.864999771118164,-22.216999053955078z"></path><path stroke-linecap="round" stroke-linejoin="round" fill-opacity="0" stroke="rgb(37,50,55)" stroke-opacity="1" stroke-width="2" d=" M-5.864999771118164,-22.216999053955078 C-5.864999771118164,-22.216999053955078 -11.053000450134277,-12.95300006866455 -9.072999954223633,0.9559999704360962 C-7.0929999351501465,14.86299991607666 1.0980000495910645,22.216999053955078 1.0980000495910645,22.216999053955078 C1.0980000495910645,22.216999053955078 11.053999900817871,10.567999839782715 8.385000228881836,-3.2860000133514404 C5.7769999504089355,-16.82699966430664 -5.864999771118164,-22.216999053955078 -5.864999771118164,-22.216999053955078z"></path></g><g opacity="1" transform="matrix(1,0,0,1,8.668000221252441,63.74599838256836)"><path fill="rgb(2,195,126)" fill-opacity="1" d=" M1.1660000085830688,9.246000289916992 C1.1660000085830688,9.246000289916992 1.1660000085830688,9.246000289916992 1.1660000085830688,9.246000289916992 C-0.2930000126361847,9.430000305175781 -1.6139999628067017,8.482000350952148 -1.784999966621399,7.127999782562256 C-1.784999966621399,7.127999782562256 -3.497999906539917,-6.4629998207092285 -3.497999906539917,-6.4629998207092285 C-3.6689999103546143,-7.816999912261963 -2.625,-9.062999725341797 -1.1660000085830688,-9.246999740600586 C0.2930000126361847,-9.430999755859375 1.6150000095367432,-8.482999801635742 1.784999966621399,-7.129000186920166 C1.784999966621399,-7.129000186920166 3.496999979019165,6.460999965667725 3.496999979019165,6.460999965667725 C3.6679999828338623,7.815000057220459 2.625,9.062000274658203 1.1660000085830688,9.246000289916992z"></path><path stroke-linecap="round" stroke-linejoin="round" fill-opacity="0" stroke="rgb(37,50,55)" stroke-opacity="1" stroke-width="2" d=" M1.1660000085830688,9.246000289916992 C1.1660000085830688,9.246000289916992 1.1660000085830688,9.246000289916992 1.1660000085830688,9.246000289916992 C-0.2930000126361847,9.430000305175781 -1.6139999628067017,8.482000350952148 -1.784999966621399,7.127999782562256 C-1.784999966621399,7.127999782562256 -3.497999906539917,-6.4629998207092285 -3.497999906539917,-6.4629998207092285 C-3.6689999103546143,-7.816999912261963 -2.625,-9.062999725341797 -1.1660000085830688,-9.246999740600586 C0.2930000126361847,-9.430999755859375 1.6150000095367432,-8.482999801635742 1.784999966621399,-7.129000186920166 C1.784999966621399,-7.129000186920166 3.496999979019165,6.460999965667725 3.496999979019165,6.460999965667725 C3.6679999828338623,7.815000057220459 2.625,9.062000274658203 1.1660000085830688,9.246000289916992z"></path></g></g><g transform="matrix(0.9468843936920166,0.3215741217136383,-0.3215741217136383,0.9468843936920166,381.7876281738281,120.72810363769531)" opacity="1" style="display: block;"><g opacity="1" transform="matrix(1,0,0,1,226.38400268554688,40.224998474121094)"><path fill="rgb(212,212,212)" fill-opacity="1" d=" M-28.281999588012695,17.367000579833984 C-28.281999588012695,17.367000579833984 -20.375999450683594,-1.218999981880188 -20.375999450683594,-1.218999981880188 C-19.79199981689453,-12.277000427246094 -16.445999145507812,-21.222999572753906 -10.687000274658203,-28.32200050354004 C-10.687000274658203,-28.32200050354004 3.174999952316284,-34.39699935913086 3.174999952316284,-34.39699935913086 C7.559999942779541,-35.2239990234375 10.333999633789062,-34 10.949000358581543,-30.020999908447266 C15.91100025177002,-29.481000900268555 18.16200065612793,-26.367000579833984 17.93899917602539,-20.906999588012695 C24.847999572753906,-21.329999923706055 25.481000900268555,-16.084999084472656 24.06800079345703,-8.994999885559082 C28.281999588012695,-3.3459999561309814 28.194000244140625,2.615999937057495 22.974000930786133,8.95199966430664 C22.974000930786133,8.95199966430664 4.2210001945495605,21.916000366210938 4.2210001945495605,21.916000366210938 C4.2210001945495605,21.916000366210938 -3.380000114440918,35.224998474121094 -3.380000114440918,35.224998474121094 C-3.380000114440918,35.224998474121094 -28.281999588012695,17.367000579833984 -28.281999588012695,17.367000579833984z"></path><path stroke-linecap="butt" stroke-linejoin="miter" fill-opacity="0" stroke-miterlimit="10" stroke="rgb(37,50,55)" stroke-opacity="1" stroke-width="2" d=" M-28.281999588012695,17.367000579833984 C-28.281999588012695,17.367000579833984 -20.375999450683594,-1.218999981880188 -20.375999450683594,-1.218999981880188 C-19.79199981689453,-12.277000427246094 -16.445999145507812,-21.222999572753906 -10.687000274658203,-28.32200050354004 C-10.687000274658203,-28.32200050354004 3.174999952316284,-34.39699935913086 3.174999952316284,-34.39699935913086 C7.559999942779541,-35.2239990234375 10.333999633789062,-34 10.949000358581543,-30.020999908447266 C15.91100025177002,-29.481000900268555 18.16200065612793,-26.367000579833984 17.93899917602539,-20.906999588012695 C24.847999572753906,-21.329999923706055 25.481000900268555,-16.084999084472656 24.06800079345703,-8.994999885559082 C28.281999588012695,-3.3459999561309814 28.194000244140625,2.615999937057495 22.974000930786133,8.95199966430664 C22.974000930786133,8.95199966430664 4.2210001945495605,21.916000366210938 4.2210001945495605,21.916000366210938 C4.2210001945495605,21.916000366210938 -3.380000114440918,35.224998474121094 -3.380000114440918,35.224998474121094 C-3.380000114440918,35.224998474121094 -28.281999588012695,17.367000579833984 -28.281999588012695,17.367000579833984z"></path></g><g opacity="1" transform="matrix(1,0,0,1,119.25499725341797,127.04399871826172)"><path fill="rgb(255,255,255)" fill-opacity="1" d=" M-66.17500305175781,-23.804000854492188 C-66.17500305175781,-23.804000854492188 4.934000015258789,15.881999969482422 4.934000015258789,15.881999969482422 C4.934000015258789,15.881999969482422 78.98899841308594,-73.56700134277344 78.98899841308594,-73.56700134277344 C78.98899841308594,-73.56700134277344 114.25499725341797,-52.125 114.25499725341797,-52.125 C114.25499725341797,-52.125 31.95800018310547,57.30400085449219 31.95800018310547,57.30400085449219 C20.66699981689453,73.56700134277344 3.868000030517578,72.75399780273438 -15.170999526977539,64.99600219726562 C-15.170999526977539,64.99600219726562 -91.33599853515625,29.65399932861328 -91.33599853515625,29.65399932861328 C-106.85299682617188,22.452999114990234 -114.25499725341797,4.11899995803833 -107.28900146484375,-11.505000114440918 C-101.43199920654297,-24.64299964904785 -86.95999908447266,-33.05400085449219 -66.17500305175781,-23.804000854492188z"></path><path stroke-linecap="round" stroke-linejoin="round" fill-opacity="0" stroke="rgb(37,50,55)" stroke-opacity="1" stroke-width="2" d=" M-66.17500305175781,-23.804000854492188 C-66.17500305175781,-23.804000854492188 4.934000015258789,15.881999969482422 4.934000015258789,15.881999969482422 C4.934000015258789,15.881999969482422 78.98899841308594,-73.56700134277344 78.98899841308594,-73.56700134277344 C78.98899841308594,-73.56700134277344 114.25499725341797,-52.125 114.25499725341797,-52.125 C114.25499725341797,-52.125 31.95800018310547,57.30400085449219 31.95800018310547,57.30400085449219 C20.66699981689453,73.56700134277344 3.868000030517578,72.75399780273438 -15.170999526977539,64.99600219726562 C-15.170999526977539,64.99600219726562 -91.33599853515625,29.65399932861328 -91.33599853515625,29.65399932861328 C-106.85299682617188,22.452999114990234 -114.25499725341797,4.11899995803833 -107.28900146484375,-11.505000114440918 C-101.43199920654297,-24.64299964904785 -86.95999908447266,-33.05400085449219 -66.17500305175781,-23.804000854492188z"></path></g><g opacity="1" transform="matrix(1,0,0,1,215.4499969482422,64.26300048828125)"><path fill="rgb(255,255,255)" fill-opacity="1" d=" M-16.6200008392334,-23.812000274658203 C-16.6200008392334,-23.812000274658203 -28.718000411987305,-9.012999534606934 -28.718000411987305,-9.012999534606934 C-28.718000411987305,-9.012999534606934 14.553999900817871,23.812000274658203 14.553999900817871,23.812000274658203 C14.553999900817871,23.812000274658203 28.718000411987305,8.329999923706055 28.718000411987305,8.329999923706055 C28.718000411987305,8.329999923706055 -16.6200008392334,-23.812000274658203 -16.6200008392334,-23.812000274658203z"></path><path stroke-linecap="round" stroke-linejoin="round" fill-opacity="0" stroke="rgb(37,50,55)" stroke-opacity="1" stroke-width="2" d=" M-16.6200008392334,-23.812000274658203 C-16.6200008392334,-23.812000274658203 -28.718000411987305,-9.012999534606934 -28.718000411987305,-9.012999534606934 C-28.718000411987305,-9.012999534606934 14.553999900817871,23.812000274658203 14.553999900817871,23.812000274658203 C14.553999900817871,23.812000274658203 28.718000411987305,8.329999923706055 28.718000411987305,8.329999923706055 C28.718000411987305,8.329999923706055 -16.6200008392334,-23.812000274658203 -16.6200008392334,-23.812000274658203z"></path></g></g><g transform="matrix(0.9830434322357178,-0.1833728849887848,0.1833728849887848,0.9830434322357178,368.0988464355469,31.048385620117188)" opacity="1" style="display: block;"><g opacity="1" transform="matrix(1,0,0,1,104.00599670410156,76.22100067138672)"><path fill="rgb(37,50,55)" fill-opacity="1" d=" M3.0739998817443848,-19.22100067138672 C5.695000171661377,-4.052999973297119 2.9700000286102295,7.836999893188477 -0.5770000219345093,19.22100067138672 C-0.5770000219345093,19.22100067138672 -5.693999767303467,-18.538999557495117 -5.693999767303467,-18.538999557495117 C-5.693999767303467,-18.538999557495117 3.0739998817443848,-19.22100067138672 3.0739998817443848,-19.22100067138672z"></path><path stroke-linecap="round" stroke-linejoin="round" fill-opacity="0" stroke="rgb(37,50,55)" stroke-opacity="1" stroke-width="2" d=" M3.0739998817443848,-19.22100067138672 C5.695000171661377,-4.052999973297119 2.9700000286102295,7.836999893188477 -0.5770000219345093,19.22100067138672 C-0.5770000219345093,19.22100067138672 -5.693999767303467,-18.538999557495117 -5.693999767303467,-18.538999557495117 C-5.693999767303467,-18.538999557495117 3.0739998817443848,-19.22100067138672 3.0739998817443848,-19.22100067138672z"></path></g><g opacity="1" transform="matrix(1,0,0,1,63.00600051879883,94.89800262451172)"><path fill="rgb(212,212,212)" fill-opacity="1" d=" M-39.57099914550781,-7.38100004196167 C-39.57099914550781,-7.38100004196167 -38.66299819946289,16.652999877929688 -38.66299819946289,16.652999877929688 C-38.66299819946289,16.652999877929688 -35.95500183105469,45.47999954223633 -35.95500183105469,45.47999954223633 C-16.562000274658203,58.459999084472656 3.7860000133514404,64.78399658203125 25.860000610351562,59.055999755859375 C30.584999084472656,57.82899856567383 34.31999969482422,54.202999114990234 35.709999084472656,49.52199935913086 C41.83599853515625,28.892000198364258 41.9370002746582,0.4950000047683716 36.183998107910156,-35.45100021362305 C18.475000381469727,-64.78399658203125 -19.17799949645996,-62.117000579833984 -41.9379997253418,-37.0629997253418 C-41.9379997253418,-37.0629997253418 -39.57099914550781,-7.38100004196167 -39.57099914550781,-7.38100004196167z"></path><path stroke-linecap="butt" stroke-linejoin="miter" fill-opacity="0" stroke-miterlimit="10" stroke="rgb(37,50,55)" stroke-opacity="1" stroke-width="2" d=" M-39.57099914550781,-7.38100004196167 C-39.57099914550781,-7.38100004196167 -38.66299819946289,16.652999877929688 -38.66299819946289,16.652999877929688 C-38.66299819946289,16.652999877929688 -35.95500183105469,45.47999954223633 -35.95500183105469,45.47999954223633 C-16.562000274658203,58.459999084472656 3.7860000133514404,64.78399658203125 25.860000610351562,59.055999755859375 C30.584999084472656,57.82899856567383 34.31999969482422,54.202999114990234 35.709999084472656,49.52199935913086 C41.83599853515625,28.892000198364258 41.9370002746582,0.4950000047683716 36.183998107910156,-35.45100021362305 C18.475000381469727,-64.78399658203125 -19.17799949645996,-62.117000579833984 -41.9379997253418,-37.0629997253418 C-41.9379997253418,-37.0629997253418 -39.57099914550781,-7.38100004196167 -39.57099914550781,-7.38100004196167z"></path></g><g opacity="1" transform="matrix(1,0,0,1,15.083000183105469,96.18499755859375)"><path fill="rgb(212,212,212)" fill-opacity="1" d=" M8.35200023651123,-8.668000221252441 C3.505000114440918,-16.29400062561035 -9.347000122070312,-10.925999641418457 -5.105999946594238,1.9520000219345093 C-0.6549999713897705,12.694999694824219 4.291999816894531,15.368000030517578 9.347000122070312,16.29400062561035 C9.347000122070312,16.29400062561035 8.35200023651123,-8.668000221252441 8.35200023651123,-8.668000221252441z"></path><path stroke-linecap="butt" stroke-linejoin="miter" fill-opacity="0" stroke-miterlimit="10" stroke="rgb(37,50,55)" stroke-opacity="1" stroke-width="2" d=" M8.35200023651123,-8.668000221252441 C3.505000114440918,-16.29400062561035 -9.347000122070312,-10.925999641418457 -5.105999946594238,1.9520000219345093 C-0.6549999713897705,12.694999694824219 4.291999816894531,15.368000030517578 9.347000122070312,16.29400062561035 C9.347000122070312,16.29400062561035 8.35200023651123,-8.668000221252441 8.35200023651123,-8.668000221252441z"></path></g><g opacity="1" transform="matrix(1,0,0,1,58.867000579833984,46.255001068115234)"><path fill="rgb(37,50,55)" fill-opacity="1" d=" M-35.082000732421875,41.25400161743164 C-28.2450008392334,36.8120002746582 -23.829999923706055,27.165000915527344 -22.253999710083008,11.413999557495117 C-10.217000007629395,16.02400016784668 -1.1339999437332153,13.395999908447266 5.364999771118164,4.434999942779541 C14.048999786376953,12.180999755859375 25.367000579833984,14.994999885559082 38.529998779296875,14.35200023651123 C49.52799987792969,15.140999794006348 53.867000579833984,9.696000099182129 52.10900115966797,-1.4520000219345093 C46.79800033569336,-23.569000244140625 33.24599838256836,-25.298999786376953 16.83300018310547,-19.95599937438965 C9.552000045776367,-41.25400161743164 -17.048999786376953,-36.96699905395508 -18.250999450683594,-19.159000396728516 C-35.24399948120117,-22.35300064086914 -44.465999603271484,-18.50200080871582 -39.361000061035156,-1.6610000133514404 C-50.29999923706055,-0.3400000035762787 -53.867000579833984,5.659999847412109 -50.415000915527344,16.115999221801758 C-50.415000915527344,16.115999221801758 -45.750999450683594,38.95600128173828 -45.750999450683594,38.95600128173828 C-42.167999267578125,38.03499984741211 -38.61399841308594,38.986000061035156 -35.082000732421875,41.25400161743164z"></path><path stroke-linecap="round" stroke-linejoin="round" fill-opacity="0" stroke="rgb(37,50,55)" stroke-opacity="1" stroke-width="2" d=" M-35.082000732421875,41.25400161743164 C-28.2450008392334,36.8120002746582 -23.829999923706055,27.165000915527344 -22.253999710083008,11.413999557495117 C-10.217000007629395,16.02400016784668 -1.1339999437332153,13.395999908447266 5.364999771118164,4.434999942779541 C14.048999786376953,12.180999755859375 25.367000579833984,14.994999885559082 38.529998779296875,14.35200023651123 C49.52799987792969,15.140999794006348 53.867000579833984,9.696000099182129 52.10900115966797,-1.4520000219345093 C46.79800033569336,-23.569000244140625 33.24599838256836,-25.298999786376953 16.83300018310547,-19.95599937438965 C9.552000045776367,-41.25400161743164 -17.048999786376953,-36.96699905395508 -18.250999450683594,-19.159000396728516 C-35.24399948120117,-22.35300064086914 -44.465999603271484,-18.50200080871582 -39.361000061035156,-1.6610000133514404 C-50.29999923706055,-0.3400000035762787 -53.867000579833984,5.659999847412109 -50.415000915527344,16.115999221801758 C-50.415000915527344,16.115999221801758 -45.750999450683594,38.95600128173828 -45.750999450683594,38.95600128173828 C-42.167999267578125,38.03499984741211 -38.61399841308594,38.986000061035156 -35.082000732421875,41.25400161743164z"></path></g></g><g transform="matrix(0.9830434322357178,-0.1833728849887848,0.1833728849887848,0.9830434322357178,424.9341125488281,88.45882415771484)" opacity="1" style="display: block;"><g opacity="1" transform="matrix(1,0,0,1,40.32500076293945,35.11800003051758)"><path stroke-linecap="round" stroke-linejoin="round" fill-opacity="0" stroke="rgb(37,50,55)" stroke-opacity="1" stroke-width="2" d=" M-2.6070001125335693,-18.231000900268555 C-1.6540000438690186,-4.806000232696533 1.5099999904632568,6.519999980926514 6.867000102996826,15.76099967956543 C1.9459999799728394,17.65399932861328 -2.6059999465942383,18.231000900268555 -6.867000102996826,17.766000747680664"></path></g><g opacity="1" transform="matrix(1,0,0,1,11.581000328063965,9.967000007629395)"><path stroke-linecap="round" stroke-linejoin="round" fill-opacity="0" stroke="rgb(37,50,55)" stroke-opacity="1" stroke-width="2" d=" M6.581999778747559,-2.552999973297119 C0.6819999814033508,-3.305999994277954 -3.7060000896453857,-1.3530000448226929 -6.581999778747559,3.305999994277954"></path></g><g opacity="1" transform="matrix(1,0,0,1,47.071998596191406,6.71999979019165)"><path stroke-linecap="round" stroke-linejoin="round" fill-opacity="0" stroke="rgb(37,50,55)" stroke-opacity="1" stroke-width="2" d=" M5.2820000648498535,1.7200000286102295 C2.556999921798706,-0.5270000100135803 -0.7099999785423279,-1.7200000286102295 -5.2820000648498535,-0.37700000405311584"></path></g><g opacity="1" transform="matrix(1,0,0,1,11.6899995803833,29.36400032043457)"><path fill="rgb(37,50,55)" fill-opacity="1" d=" M-2.697999954223633,0.061000000685453415 C-2.63100004196167,3.0190000534057617 -1.3680000305175781,5.389999866485596 0.12200000137090683,5.355999946594238 C1.6119999885559082,5.322000026702881 2.765000104904175,2.8970000743865967 2.697999954223633,-0.061000000685453415 C2.63100004196167,-3.0199999809265137 1.36899995803833,-5.389999866485596 -0.12099999934434891,-5.355999946594238 C-1.6119999885559082,-5.322000026702881 -2.765000104904175,-2.8970000743865967 -2.697999954223633,0.061000000685453415z"></path><path stroke-linecap="round" stroke-linejoin="round" fill-opacity="0" stroke="rgb(37,50,55)" stroke-opacity="1" stroke-width="2" d=" M-2.697999954223633,0.061000000685453415 C-2.63100004196167,3.0190000534057617 -1.3680000305175781,5.389999866485596 0.12200000137090683,5.355999946594238 C1.6119999885559082,5.322000026702881 2.765000104904175,2.8970000743865967 2.697999954223633,-0.061000000685453415 C2.63100004196167,-3.0199999809265137 1.36899995803833,-5.389999866485596 -0.12099999934434891,-5.355999946594238 C-1.6119999885559082,-5.322000026702881 -2.765000104904175,-2.8970000743865967 -2.697999954223633,0.061000000685453415z"></path></g><g opacity="1" transform="matrix(1,0,0,1,48.64699935913086,25.344999313354492)"><path fill="rgb(37,50,55)" fill-opacity="1" d=" M-2.134000062942505,0.04800000041723251 C-2.0789999961853027,2.4519999027252197 -1.0800000429153442,4.379000186920166 0.0989999994635582,4.3520002365112305 C1.277999997138977,4.326000213623047 2.188999891281128,2.3550000190734863 2.134999990463257,-0.04899999871850014 C2.0799999237060547,-2.453000068664551 1.0800000429153442,-4.379000186920166 -0.09799999743700027,-4.3520002365112305 C-1.2769999504089355,-4.324999809265137 -2.188999891281128,-2.3559999465942383 -2.134000062942505,0.04800000041723251z"></path><path stroke-linecap="round" stroke-linejoin="round" fill-opacity="0" stroke="rgb(37,50,55)" stroke-opacity="1" stroke-width="2" d=" M-2.134000062942505,0.04800000041723251 C-2.0789999961853027,2.4519999027252197 -1.0800000429153442,4.379000186920166 0.0989999994635582,4.3520002365112305 C1.277999997138977,4.326000213623047 2.188999891281128,2.3550000190734863 2.134999990463257,-0.04899999871850014 C2.0799999237060547,-2.453000068664551 1.0800000429153442,-4.379000186920166 -0.09799999743700027,-4.3520002365112305 C-1.2769999504089355,-4.324999809265137 -2.188999891281128,-2.3559999465942383 -2.134000062942505,0.04800000041723251z"></path></g><g opacity="1" transform="matrix(1,0,0,1,20.871000289916992,67.49600219726562)"><path stroke-linecap="round" stroke-linejoin="round" fill-opacity="0" stroke="rgb(37,50,55)" stroke-opacity="1" stroke-width="2" d=" M6.3470001220703125,3.250999927520752 C0.40799999237060547,3.565000057220459 -3.822999954223633,1.2940000295639038 -6.3470001220703125,-3.565000057220459"></path></g></g></g></svg>