<svg xmlns="http://www.w3.org/2000/svg" viewBox="0 0 1080 1080" width="1080" height="1080" preserveAspectRatio="xMidYMid meet" style="width: 100%; height: 100%; transform: translate3d(0px, 0px, 0px);"><defs><clipPath id="__lottie_element_64"><rect width="1080" height="1080" x="0" y="0"></rect></clipPath></defs><g clip-path="url(#__lottie_element_64)"><g transform="matrix(1,0,0,1,0,0)" opacity="1" style="display: block;"><g opacity="1" transform="matrix(1,0,0,1,441.6679992675781,427.1310119628906)"><path fill="rgb(133,176,220)" fill-opacity="1" d=" M300.75,263.2560119628906 C300.75,263.2560119628906 -302.8909912109375,260.78900146484375 -302.8909912109375,260.78900146484375 C-335.6759948730469,260.6549987792969 -362.14599609375,233.968994140625 -362.0119934082031,201.1840057373047 C-362.0119934082031,201.1840057373047 -360.3550109863281,-204.13499450683594 -360.3550109863281,-204.13499450683594 C-360.22198486328125,-236.9199981689453 -333.5350036621094,-263.3900146484375 -300.75,-263.2550048828125 C-300.75,-263.2550048828125 302.8919982910156,-260.78900146484375 302.8919982910156,-260.78900146484375 C335.677001953125,-260.6549987792969 362.14599609375,-233.96800231933594 362.0119934082031,-201.1820068359375 C362.0119934082031,-201.1820068359375 360.3550109863281,204.13499450683594 360.3550109863281,204.13499450683594 C360.22198486328125,236.92100524902344 333.5350036621094,263.3900146484375 300.75,263.2560119628906z"></path></g><g opacity="1" transform="matrix(1,0,0,1,442.0409851074219,427.13299560546875)"><path fill="rgb(236,227,218)" fill-opacity="1" d=" M263.7149963378906,235.52200317382812 C263.7149963378906,235.52200317382812 -265.6289978027344,233.35899353027344 -265.6289978027344,233.35899353027344 C-298.41400146484375,233.22500610351562 -324.8840026855469,206.5399932861328 -324.7489929199219,173.75399780273438 C-324.7489929199219,173.75399780273438 -323.3190002441406,-176.4010009765625 -323.3190002441406,-176.4010009765625 C-323.1839904785156,-209.18699645996094 -296.49798583984375,-235.65699768066406 -263.7130126953125,-235.5229949951172 C-263.7130126953125,-235.5229949951172 265.6300048828125,-233.35899353027344 265.6300048828125,-233.35899353027344 C298.4150085449219,-233.22500610351562 324.8840026855469,-206.53900146484375 324.75,-173.7530059814453 C324.75,-173.7530059814453 323.3190002441406,176.4010009765625 323.3190002441406,176.4010009765625 C323.1860046386719,209.18699645996094 296.5,235.656005859375 263.7149963378906,235.52200317382812z"></path></g><g opacity="1" transform="matrix(1,0,0,1,426.6650085449219,723.9030151367188)"><path fill="rgb(133,176,220)" fill-opacity="1" d=" M101.63500213623047,37.84700012207031 C101.63500213623047,37.84700012207031 -101.94100189208984,37.01599884033203 -101.94100189208984,37.01599884033203 C-101.94100189208984,37.01599884033203 -101.63600158691406,-37.84700012207031 -101.63600158691406,-37.84700012207031 C-101.63600158691406,-37.84700012207031 101.94100189208984,-37.01599884033203 101.94100189208984,-37.01599884033203 C101.94100189208984,-37.01599884033203 101.63500213623047,37.84700012207031 101.63500213623047,37.84700012207031z"></path></g><g opacity="1" transform="matrix(1,0,0,1,425.5039978027344,796.1920166015625)"><path fill="rgb(133,176,220)" fill-opacity="1" d=" M215.9010009765625,38.314998626708984 C215.9010009765625,38.314998626708984 -216.20599365234375,36.54899978637695 -216.20599365234375,36.54899978637695 C-216.20599365234375,36.54899978637695 -215.9010009765625,-38.314998626708984 -215.9010009765625,-38.314998626708984 C-215.9010009765625,-38.314998626708984 216.20599365234375,-36.54899978637695 216.20599365234375,-36.54899978637695 C216.20599365234375,-36.54899978637695 215.9010009765625,38.314998626708984 215.9010009765625,38.314998626708984z"></path></g></g><g transform="matrix(1,0,0,1,0,0)" opacity="1" style="display: block;"><g opacity="1" transform="matrix(1,0,0,1,915.9010009765625,550)"><path fill="rgb(236,227,218)" fill-opacity="1" d=" M34.5989990234375,-60.5 C34.5989990234375,-60.5 63.790000915527344,60.5 -4.401000022888184,60.5 C-31.583999633789062,60.5 -50.24700164794922,42.86199951171875 -55.64500045776367,21.648000717163086 C-63.790000915527344,-10.355999946594238 -39.4010009765625,-58.5 -39.4010009765625,-58.5 C-39.4010009765625,-58.5 34.5989990234375,-60.5 34.5989990234375,-60.5z"></path></g></g><g transform="matrix(0.9372864961624146,0.3485599756240845,-0.3485599756240845,0.9372864961624146,191.31283569335938,-295.3387451171875)" opacity="1" style="display: block;"><g opacity="1" transform="matrix(1,0,0,1,871.2990112304688,387.72601318359375)"><path fill="rgb(95,59,46)" fill-opacity="1" d=" M10.057999610900879,-18.780000686645508 C10.057999610900879,-18.780000686645508 -42.46799850463867,17.14900016784668 -42.46799850463867,17.14900016784668 C-42.46799850463867,17.14900016784668 -41.81999969482422,18.4060001373291 -39.87200164794922,22.174999237060547 C-37.08000183105469,27.57900047302246 -25.756999969482422,37.167999267578125 -25.756999969482422,37.167999267578125 C-25.756999969482422,37.167999267578125 42.46799850463867,-4.015999794006348 42.46799850463867,-4.015999794006348 C42.46799850463867,-4.015999794006348 34.5369987487793,-37.167999267578125 10.057999610900879,-18.780000686645508z"></path></g></g><g transform="matrix(0.9986295104026794,0.0523359552025795,-0.0523359552025795,0.9986295104026794,27.61444091796875,-46.950531005859375)" opacity="1" style="display: block;"><g opacity="1" transform="matrix(1,0,0,1,913.1719970703125,322.97900390625)"><path fill="rgb(0,0,0)" fill-opacity="1" d=" M-12.873000144958496,-29.378000259399414 C-12.873000144958496,-29.378000259399414 -11.170999526977539,-15.930000305175781 -15.800999641418457,-5.223999977111816 C-19.618000030517578,3.6019999980926514 -24.4060001373291,35.28200149536133 -28.204999923706055,36.992000579833984 C-28.204999923706055,36.992000579833984 11.413999557495117,47.590999603271484 17.16900062561035,48.57600021362305 C17.16900062561035,48.57600021362305 28.204999923706055,-48.57600021362305 -12.873000144958496,-29.378000259399414z"></path></g></g><g transform="matrix(0.9986295104026794,0.0523359552025795,-0.0523359552025795,0.9986295104026794,27.61444091796875,-46.950531005859375)" opacity="1" style="display: block;"><g opacity="1" transform="matrix(1,0,0,1,909.1380004882812,326.364013671875)"><path fill="rgb(95,59,46)" fill-opacity="1" d=" M22.29599952697754,-5.705999851226807 C22.29599952697754,-5.705999851226807 6.210000038146973,40.96699905395508 20.423999786376953,45.37799835205078 C34.63800048828125,49.790000915527344 -34.63800048828125,61.1349983215332 -34.63800048828125,61.1349983215332 C-34.63800048828125,61.1349983215332 -33.17900085449219,57.63199996948242 -27.63800048828125,46.1349983215332 C-25.275999069213867,41.236000061035156 -16.63800048828125,32.1349983215332 -16.63800048828125,32.1349983215332 C-12.637999534606934,27.135000228881836 -8.86400032043457,16.992000579833984 -8.019000053405762,11.031000137329102 C-7.289999961853027,5.888999938964844 -8.63700008392334,0.15600000321865082 -8.197999954223633,-5.909999847412109 C-4.203000068664551,-61.1349983215332 22.29599952697754,-5.705999851226807 22.29599952697754,-5.705999851226807z"></path></g></g><g transform="matrix(0.9986295104026794,0.0523359552025795,-0.0523359552025795,0.9986295104026794,27.61444091796875,-46.950531005859375)" opacity="1" style="display: block;"><g opacity="1" transform="matrix(1,0,0,1,904.5,429.4020080566406)"><path fill="rgb(236,94,92)" fill-opacity="1" d=" M48,58.097999572753906 C48,58.097999572753906 45,61.097999572753906 16.62299919128418,71.0979995727539 C-9.675999641418457,80.36599731445312 -21.87299919128418,67.177001953125 -21.87299919128418,67.177001953125 C-21.87299919128418,67.177001953125 -28.235000610351562,62.595001220703125 -28.235000610351562,62.595001220703125 C-27.14900016784668,42.097999572753906 -32.577999114990234,0.8270000219345093 -32.577999114990234,0.8270000219345093 C-48,-56.902000427246094 -12,-70.9020004272461 -12,-70.9020004272461 C-12,-70.9020004272461 -26.003000259399414,-45.6510009765625 -17,-47.902000427246094 C-13,-48.902000427246094 19.770000457763672,-80.36599731445312 19.770000457763672,-80.36599731445312 C43,-56.902000427246094 40.1150016784668,-50.180999755859375 41.334999084472656,-33.659000396728516 C42.37699890136719,-19.538999557495117 41.7239990234375,-6.874000072479248 42.59199905395508,15.300999641418457 C42.88100051879883,22.691999435424805 42.229000091552734,31.139999389648438 45.34600067138672,41.05099868774414 C45.34600067138672,41.05099868774414 48,58.097999572753906 48,58.097999572753906z"></path></g></g><g transform="matrix(0.9986295104026794,0.0523359552025795,-0.0523359552025795,0.9986295104026794,27.61444091796875,-46.950531005859375)" opacity="1" style="display: block;"><g opacity="1" transform="matrix(1,0,0,1,914.3090209960938,313.85400390625)"><path fill="rgb(95,59,46)" fill-opacity="1" d=" M-24.099000930786133,-4.999000072479248 C-26.43199920654297,10.22700023651123 -27.006999969482422,27.59000015258789 -22.086999893188477,28.3439998626709 C-6.861999988555908,30.677000045776367 22.341999053955078,18.006999969482422 24.673999786376953,2.7809998989105225 C27.006999969482422,-12.444000244140625 22.92099952697754,-26.01099967956543 7.695000171661377,-28.3439998626709 C-7.5320000648498535,-30.677000045776367 -21.766000747680664,-20.225000381469727 -24.099000930786133,-4.999000072479248z"></path></g><g opacity="1" transform="matrix(1,0,0,1,886.302978515625,321.4049987792969)"><path fill="rgb(95,59,46)" fill-opacity="1" d=" M3.9509999752044678,-7 C3.9509999752044678,-7 -4.22599983215332,0.26499998569488525 -3.802999973297119,3.0950000286102295 C-3.6429998874664307,4.169000148773193 -0.41600000858306885,5.681000232696533 1.906000018119812,6.340000152587891 C4.2270002365112305,7 3.9509999752044678,-7 3.9509999752044678,-7z"></path></g></g><g transform="matrix(1,0,0,1,0,0)" opacity="1" style="display: block;"><g opacity="1" transform="matrix(1,0,0,1,869.0770263671875,766.218017578125)"><path fill="rgb(95,59,46)" fill-opacity="1" d=" M62.10900115966797,-130.71800231933594 C62.10900115966797,-130.71800231933594 -51.15999984741211,130.71800231933594 -51.15999984741211,130.71800231933594 C-51.15999984741211,130.71800231933594 -62.11000061035156,124.22000122070312 -62.11000061035156,124.22000122070312 C-62.11000061035156,124.22000122070312 -0.890999972820282,-130.71800231933594 -0.890999972820282,-130.71800231933594 C-0.890999972820282,-130.71800231933594 62.10900115966797,-130.71800231933594 62.10900115966797,-130.71800231933594z"></path></g><g opacity="1" transform="matrix(1,0,0,1,813.7109985351562,891.1630249023438)"><path fill="rgb(236,94,92)" fill-opacity="1" d=" M4.502999782562256,5.124000072479248 C4.502999782562256,5.124000072479248 9.11299991607666,-5.123000144958496 9.11299991607666,-5.123000144958496 C9.11299991607666,-5.123000144958496 -5.118000030517578,-5.123000144958496 -5.118000030517578,-5.123000144958496 C-5.118000030517578,-5.123000144958496 -9.11400032043457,4.473999977111816 -9.11400032043457,4.473999977111816 C-9.11400032043457,4.473999977111816 4.502999782562256,5.124000072479248 4.502999782562256,5.124000072479248z"></path></g><g opacity="1" transform="matrix(1,0,0,1,797.0469970703125,904.2150268554688)"><path fill="rgb(236,227,218)" fill-opacity="1" d=" M8.534000396728516,9.295000076293945 C13.91100025177002,9.13700008392334 18.913000106811523,3.505000114440918 18.913000106811523,3.505000114440918 C18.913000106811523,3.505000114440918 22.670000076293945,-2.9809999465942383 23.444000244140625,-6.138000011444092 C24.218000411987305,-9.295000076293945 22.29599952697754,-8.454999923706055 22.29599952697754,-8.454999923706055 C22.29599952697754,-8.454999923706055 7.4730000495910645,-8.579999923706055 7.4730000495910645,-8.579999923706055 C7.4730000495910645,-8.579999923706055 -11.531000137329102,-4.447000026702881 -19.486000061035156,1.5 C-23.301000595092773,4.354000091552734 -24.2189998626709,8.96399974822998 -24.2189998626709,8.96399974822998 C-24.2189998626709,8.96399974822998 8.534000396728516,9.295000076293945 8.534000396728516,9.295000076293945z"></path></g><g opacity="1" transform="matrix(1,0,0,1,933,769.218017578125)"><path fill="rgb(95,59,46)" fill-opacity="1" d=" M30.5,-130.71800231933594 C30.5,-130.71800231933594 21.06800079345703,130.71800231933594 21.06800079345703,130.71800231933594 C21.06800079345703,130.71800231933594 7.538000106811523,124.22000122070312 7.538000106811523,124.22000122070312 C7.538000106811523,124.22000122070312 -30.5,-130.71800231933594 -30.5,-130.71800231933594 C-30.5,-130.71800231933594 30.5,-130.71800231933594 30.5,-130.71800231933594z"></path></g><g opacity="1" transform="matrix(1,0,0,1,947.4400024414062,894.1630249023438)"><path fill="rgb(236,94,92)" fill-opacity="1" d=" M6.666999816894531,5.124000072479248 C6.666999816894531,5.124000072479248 7.208000183105469,-5.123000144958496 7.208000183105469,-5.123000144958496 C7.208000183105469,-5.123000144958496 -7.0229997634887695,-5.123000144958496 -7.0229997634887695,-5.123000144958496 C-7.0229997634887695,-5.123000144958496 -7.208000183105469,4.473999977111816 -7.208000183105469,4.473999977111816 C-7.208000183105469,4.473999977111816 6.666999816894531,5.124000072479248 6.666999816894531,5.124000072479248z"></path></g><g opacity="1" transform="matrix(1,0,0,1,936.0460205078125,907.2150268554688)"><path fill="rgb(236,227,218)" fill-opacity="1" d=" M12.269000053405762,9.295000076293945 C17.582000732421875,9.13700008392334 20.349000930786133,3.505000114440918 20.349000930786133,3.505000114440918 C20.349000930786133,3.505000114440918 21.52899932861328,-2.9809999465942383 21.048999786376953,-6.138000011444092 C20.56999969482422,-9.295000076293945 18.98200035095215,-8.454999923706055 18.98200035095215,-8.454999923706055 C18.98200035095215,-8.454999923706055 4.109000205993652,-8.579999923706055 4.109000205993652,-8.579999923706055 C4.109000205993652,-8.579999923706055 -13.253000259399414,-4.447000026702881 -18.844999313354492,1.5 C-21.527999877929688,4.354000091552734 -20.614999771118164,8.96399974822998 -20.614999771118164,8.96399974822998 C-20.614999771118164,8.96399974822998 12.269000053405762,9.295000076293945 12.269000053405762,9.295000076293945z"></path></g><g opacity="1" transform="matrix(1,0,0,1,902,654.7410278320312)"><path fill="rgb(236,227,218)" fill-opacity="1" d=" M-39.5,-123.24099731445312 C-39.5,-123.24099731445312 -93.5,102.75900268554688 -93.5,102.75900268554688 C-93.5,102.75900268554688 -81.5,126.75900268554688 -33.5,133.75900268554688 C-23.23699951171875,135.25599670410156 12.5,128.75900268554688 12.5,128.75900268554688 C12.5,128.75900268554688 35.737998962402344,131.0240020751953 43.5,130.75900268554688 C51.0620002746582,130.50100708007812 66.93699645996094,130.5229949951172 73.5,126.75900268554688 C80.2750015258789,122.8740005493164 93.5,102.75900268554688 93.5,102.75900268554688 C93.5,102.75900268554688 53.39699935913086,-135.25599670410156 53.39699935913086,-135.25599670410156 C53.39699935913086,-135.25599670410156 -39.5,-123.24099731445312 -39.5,-123.24099731445312z"></path></g></g><g transform="matrix(0.9743700623512268,-0.22495105862617493,0.22495105862617493,0.9743700623512268,-50.89468002319336,217.04942321777344)" opacity="1" style="display: block;"><g opacity="1" transform="matrix(1,0,0,1,955.9329833984375,403.2829895019531)"><path fill="rgb(95,59,46)" fill-opacity="1" d=" M-16.856000900268555,2.6480000019073486 C-16.856000900268555,2.6480000019073486 24.591999053955078,43.308998107910156 24.591999053955078,43.308998107910156 C24.591999053955078,43.308998107910156 28.788999557495117,43.98400115966797 34.41299819946289,42.5369987487793 C40.0369987487793,41.09000015258789 37.35599899291992,31.250999450683594 37.35599899291992,31.250999450683594 C37.35599899291992,31.250999450683594 10.508000373840332,-15 -9.545000076293945,-33.10200119018555 C-14.682000160217285,-37.73899841308594 -24.547000885009766,-43.98400115966797 -33.20600128173828,-35.26300048828125 C-40.0359992980957,-28.382999420166016 -32.01300048828125,-8.711999893188477 -16.856000900268555,2.6480000019073486z"></path></g></g><g transform="matrix(0.9743700623512268,-0.22495105862617493,0.22495105862617493,0.9743700623512268,-50.89468002319336,217.04942321777344)" opacity="1" style="display: block;"><g opacity="1" transform="matrix(1,0,0,1,965.1519775390625,468.06500244140625)"><path fill="rgb(95,59,46)" fill-opacity="1" d=" M13.062999725341797,-37.21799850463867 C13.062999725341797,-37.21799850463867 -34.652000427246094,24.434999465942383 -34.652000427246094,24.434999465942383 C-34.652000427246094,24.434999465942383 -34.38199996948242,37.21799850463867 -34.38199996948242,37.21799850463867 C-34.38199996948242,37.21799850463867 34.65299987792969,-1.4170000553131104 28.347999572753906,-33.564998626708984 C28.347999572753906,-33.564998626708984 13.062999725341797,-37.21799850463867 13.062999725341797,-37.21799850463867z"></path></g></g><g transform="matrix(0.9743700623512268,-0.22495105862617493,0.22495105862617493,0.9743700623512268,-50.89468002319336,217.04942321777344)" opacity="1" style="display: block;"><g opacity="1" transform="matrix(1,0,0,1,925.7379760742188,504.40399169921875)"><path fill="rgb(95,59,46)" fill-opacity="1" d=" M12.99899959564209,-7.617000102996826 C12.99899959564209,-7.617000102996826 9.38700008392334,2.7920000553131104 7.142000198364258,6.160999774932861 C5.0980000495910645,9.229000091552734 -3.0380001068115234,17.229000091552734 -3.0380001068115234,17.229000091552734 C-3.0380001068115234,17.229000091552734 -14.708999633789062,6.625 -14.708999633789062,6.625 C-14.708999633789062,6.625 -8.420000076293945,-2.740000009536743 -8.420000076293945,-2.740000009536743 C-8.420000076293945,-2.740000009536743 6.313000202178955,-14.454000473022461 6.313000202178955,-14.454000473022461 C6.313000202178955,-14.454000473022461 8.362000465393066,-17.22800064086914 11.53600025177002,-13.642000198364258 C14.708999633789062,-10.055000305175781 12.99899959564209,-7.617000102996826 12.99899959564209,-7.617000102996826z"></path></g><g opacity="1" transform="matrix(1,0,0,1,913.4019775390625,504.70001220703125)"><path fill="rgb(95,59,46)" fill-opacity="1" d=" M10.741000175476074,-7.4029998779296875 C10.741000175476074,-7.4029998779296875 -2.8970000743865967,-3.318000078201294 -2.8970000743865967,-3.318000078201294 C-2.8970000743865967,-3.318000078201294 -10.741000175476074,5.679999828338623 -10.741000175476074,5.679999828338623 C-10.741000175476074,5.679999828338623 -7.7779998779296875,7.4029998779296875 -3.434999942779541,2.566999912261963 C-3.434999942779541,2.566999912261963 3.6029999256134033,2.3949999809265137 3.6029999256134033,2.3949999809265137 C3.6029999256134033,2.3949999809265137 10.741000175476074,-7.4029998779296875 10.741000175476074,-7.4029998779296875z"></path></g><g opacity="1" transform="matrix(1,0,0,1,908.6060180664062,517.7470092773438)"><path fill="rgb(95,59,46)" fill-opacity="1" d=" M4.763000011444092,-9.61400032043457 C4.763000011444092,-9.61400032043457 -7.997000217437744,6.546999931335449 -7.997000217437744,6.546999931335449 C-7.997000217437744,6.546999931335449 -9.8149995803833,9.36400032043457 -8.265000343322754,9.48900032043457 C-6.7170000076293945,9.61400032043457 -5.0329999923706055,8.267999649047852 -5.0329999923706055,8.267999649047852 C-5.0329999923706055,8.267999649047852 9.814000129699707,-9.057000160217285 9.814000129699707,-9.057000160217285 C9.814000129699707,-9.057000160217285 4.763000011444092,-9.61400032043457 4.763000011444092,-9.61400032043457z"></path></g><g opacity="1" transform="matrix(1,0,0,1,915.2410278320312,521.9879760742188)"><path fill="rgb(95,59,46)" fill-opacity="1" d=" M4.763000011444092,-9.61400032043457 C4.763000011444092,-9.61400032043457 -7.997000217437744,6.546999931335449 -7.997000217437744,6.546999931335449 C-7.997000217437744,6.546999931335449 -9.814000129699707,9.36400032043457 -8.265000343322754,9.48900032043457 C-6.716000080108643,9.61400032043457 -5.0329999923706055,8.267999649047852 -5.0329999923706055,8.267999649047852 C-5.0329999923706055,8.267999649047852 9.814000129699707,-9.057000160217285 9.814000129699707,-9.057000160217285 C9.814000129699707,-9.057000160217285 4.763000011444092,-9.61400032043457 4.763000011444092,-9.61400032043457z"></path></g><g opacity="1" transform="matrix(1,0,0,1,920.72998046875,521.6900024414062)"><path fill="rgb(95,59,46)" fill-opacity="1" d=" M4.763000011444092,-9.61400032043457 C4.763000011444092,-9.61400032043457 -7.997000217437744,6.546999931335449 -7.997000217437744,6.546999931335449 C-7.997000217437744,6.546999931335449 -9.814000129699707,9.36400032043457 -8.265000343322754,9.48900032043457 C-6.716000080108643,9.61400032043457 -5.0329999923706055,8.267999649047852 -5.0329999923706055,8.267999649047852 C-5.0329999923706055,8.267999649047852 9.814000129699707,-9.057000160217285 9.814000129699707,-9.057000160217285 C9.814000129699707,-9.057000160217285 4.763000011444092,-9.61400032043457 4.763000011444092,-9.61400032043457z"></path></g><g opacity="1" transform="matrix(1,0,0,1,910.593994140625,521.6129760742188)"><path fill="rgb(95,59,46)" fill-opacity="1" d=" M5.605000019073486,-10.28600025177002 C5.605000019073486,-10.28600025177002 -8.83899974822998,7.218999862670898 -8.83899974822998,7.218999862670898 C-8.83899974822998,7.218999862670898 -10.656000137329102,10.03600025177002 -9.107000350952148,10.16100025177002 C-7.557000160217285,10.286999702453613 -5.874000072479248,8.940999984741211 -5.874000072479248,8.940999984741211 C-5.874000072479248,8.940999984741211 10.656000137329102,-9.729000091552734 10.656000137329102,-9.729000091552734 C10.656000137329102,-9.729000091552734 5.605000019073486,-10.28600025177002 5.605000019073486,-10.28600025177002z"></path></g><g opacity="1" transform="matrix(1,0,0,1,929.5,493.5)"><path fill="rgb(133,176,220)" fill-opacity="1" d=" M2.5,0 C2.5,1.38100004196167 1.38100004196167,2.5 0,2.5 C-1.38100004196167,2.5 -2.5,1.38100004196167 -2.5,0 C-2.5,-1.38100004196167 -1.38100004196167,-2.5 0,-2.5 C1.38100004196167,-2.5 2.5,-1.38100004196167 2.5,0z"></path></g><g opacity="1" transform="matrix(1,0,0,1,933.5,496.5)"><path fill="rgb(236,94,92)" fill-opacity="1" d=" M2.5,0 C2.5,1.38100004196167 1.38100004196167,2.5 0,2.5 C-1.38100004196167,2.5 -2.5,1.38100004196167 -2.5,0 C-2.5,-1.38100004196167 -1.38100004196167,-2.5 0,-2.5 C1.38100004196167,-2.5 2.5,-1.38100004196167 2.5,0z"></path></g><g opacity="1" transform="matrix(1,0,0,1,936.5,500.5)"><path fill="rgb(133,176,220)" fill-opacity="1" d=" M2.5,0 C2.5,1.38100004196167 1.38100004196167,2.5 0,2.5 C-1.38100004196167,2.5 -2.5,1.38100004196167 -2.5,0 C-2.5,-1.38100004196167 -1.38100004196167,-2.5 0,-2.5 C1.38100004196167,-2.5 2.5,-1.38100004196167 2.5,0z"></path></g></g><g transform="matrix(0.9986295104026794,0.0523359552025795,-0.0523359552025795,0.9986295104026794,27.61444091796875,-46.950531005859375)" opacity="1" style="display: block;"><g opacity="1" transform="matrix(1,0,0,1,906.4530029296875,291.0719909667969)"><path fill="rgb(0,0,0)" fill-opacity="1" d=" M26.952999114990234,-3.0799999237060547 C26.952999114990234,-3.0799999237060547 21.047000885009766,-16.572999954223633 -4.953000068664551,-8.572999954223633 C-4.953000068664551,-8.572999954223633 -26.952999114990234,-0.5730000138282776 -19.952999114990234,16.427000045776367 C-19.952999114990234,16.427000045776367 0.7059999704360962,16.57200050354004 10.876999855041504,6.5 C21.047000885009766,-3.572999954223633 26.952999114990234,-3.0799999237060547 26.952999114990234,-3.0799999237060547z"></path></g></g><g transform="matrix(0.9986295104026794,0.0523359552025795,-0.0523359552025795,0.9986295104026794,27.61444091796875,-46.950531005859375)" opacity="1" style="display: block;"><g opacity="1" transform="matrix(1,0,0,1,927.5,326)"><path fill="rgb(0,0,0)" fill-opacity="1" d=" M-20,-26.5 C-20,-26.5 -21.038999557495117,-8.447999954223633 -8,2.5 C-8,2.5 -13,11.5 -13.270000457763672,24.43899917602539 C-13.562999725341797,38.55400085449219 -13,40.5 -13,40.5 C-13,40.5 -6.517000198364258,45.43600082397461 5,40.5 C12,37.5 23,48.5 23,48.5 C23,48.5 22.059999465942383,19.46299934387207 19,1.5 C16.06999969482422,-15.699000358581543 15.3100004196167,-37.775001525878906 2.7260000705718994,-41.29800033569336 C-23,-48.5 -20,-26.5 -20,-26.5z"></path></g></g><g transform="matrix(0.9986295104026794,0.0523359552025795,-0.0523359552025795,0.9986295104026794,27.61444091796875,-46.950531005859375)" opacity="1" style="display: block;"><g opacity="1" transform="matrix(1,0,0,1,924.6820068359375,311.5299987792969)"><path fill="rgb(95,59,46)" fill-opacity="1" d=" M-6.03000020980835,-3.489000082015991 C-6.03000020980835,-3.489000082015991 0.14900000393390656,-9.470000267028809 2.319000005722046,-3.5299999713897705 C6.031000137329102,6.630000114440918 -5.681000232696533,9.470000267028809 -5.681000232696533,9.470000267028809 C-5.681000232696533,9.470000267028809 -6.03000020980835,-3.489000082015991 -6.03000020980835,-3.489000082015991z"></path></g><g opacity="1" transform="matrix(1,0,0,1,923.5,319.5)"><path fill="rgb(236,94,92)" fill-opacity="1" d=" M2.5,0 C2.5,1.38100004196167 1.38100004196167,2.5 0,2.5 C-1.38100004196167,2.5 -2.5,1.38100004196167 -2.5,0 C-2.5,-1.38100004196167 -1.38100004196167,-2.5 0,-2.5 C1.38100004196167,-2.5 2.5,-1.38100004196167 2.5,0z"></path></g></g><g transform="matrix(0.8535574674606323,0.5209985971450806,-0.5209985971450806,0.8535574674606323,339.7914733886719,-405.8062438964844)" opacity="1" style="display: block;"><g opacity="1" transform="matrix(1,0,0,1,798.31298828125,427.06201171875)"><path fill="rgb(95,59,46)" fill-opacity="1" d=" M49.88199996948242,-4.711999893188477 C38.35300064086914,8.744999885559082 5.909999847412109,14.366999626159668 -49.66899871826172,23.847999572753906 C-49.66899871826172,23.847999572753906 -53.13800048828125,12.579000473022461 -53.13800048828125,12.579000473022461 C-53.13800048828125,12.579000473022461 34.104000091552734,-23.847999572753906 34.104000091552734,-23.847999572753906 C34.104000091552734,-23.847999572753906 53.138999938964844,-8.512999534606934 49.88199996948242,-4.711999893188477z"></path></g><g opacity="1" transform="matrix(1,0,0,1,761,442.5)"><path fill="rgb(236,94,92)" fill-opacity="1" d=" M-5,-11.5 C-5,-11.5 -5,11.5 -5,11.5 C-5,11.5 -2,10.5 -1,8.5 C0,6.5 5,-10.5 -5,-11.5z"></path></g></g><g transform="matrix(0.972778856754303,0.23173537850379944,-0.23173537850379944,0.972778856754303,120.3736343383789,-240.57850646972656)" opacity="1" style="display: block;"><g opacity="1" transform="matrix(1,0,0,1,732,450.5)"><path fill="rgb(95,59,46)" fill-opacity="1" d=" M23.5,-15 C23.5,-15 -9.5,-15 -9.5,-15 C-9.5,-15 -23.5,2 -23.5,2 C-23.5,2 1.5,15 7.5,10 C13.5,5 21.5,-0.41999998688697815 21.5,-0.41999998688697815 C21.5,-0.41999998688697815 23.5,-15 23.5,-15z"></path></g><g opacity="1" transform="matrix(1,0,0,1,722.2360229492188,445.3030090332031)"><path fill="rgb(0,0,0)" fill-opacity="1" d=" M26.71500015258789,6.916999816894531 C26.71500015258789,6.916999816894531 23.288000106811523,11.498000144958496 13.333999633789062,10.541999816894531 C2.384999990463257,9.491000175476074 -0.621999979019165,4.178999900817871 -0.621999979019165,4.178999900817871 C-0.621999979019165,4.178999900817871 -28.01099967956543,1.437000036239624 -28.01099967956543,1.437000036239624 C-28.01099967956543,1.437000036239624 -26.715999603271484,-11.49899959564209 -26.715999603271484,-11.49899959564209 C-26.715999603271484,-11.49899959564209 28.01099967956543,-6.019000053405762 28.01099967956543,-6.019000053405762 C28.01099967956543,-6.019000053405762 26.71500015258789,6.916999816894531 26.71500015258789,6.916999816894531z"></path></g><g opacity="1" transform="matrix(1,0,0,1,715,448)"><path fill="rgb(95,59,46)" fill-opacity="1" d=" M-6.5,4.5 C-6.5,4.5 2.5,-7.5 2.5,-7.5 C2.5,-7.5 6.5,-8.5 6.5,-6.5 C6.5,-4.5 0,7.5929999351501465 0,7.5929999351501465 C0,7.5929999351501465 -2.5,8.5 -4.5,7.5 C-6.5,6.5 -6.5,4.5 -6.5,4.5z"></path></g><g opacity="1" transform="matrix(1,0,0,1,720,450)"><path fill="rgb(95,59,46)" fill-opacity="1" d=" M-6.5,4.5 C-6.5,4.5 2.5,-7.5 2.5,-7.5 C2.5,-7.5 6.5,-8.5 6.5,-6.5 C6.5,-4.5 0,7.5929999351501465 0,7.5929999351501465 C0,7.5929999351501465 -2.5,8.5 -4.5,7.5 C-6.5,6.5 -6.5,4.5 -6.5,4.5z"></path></g><g opacity="1" transform="matrix(1,0,0,1,725,452)"><path fill="rgb(95,59,46)" fill-opacity="1" d=" M-6.5,4.5 C-6.5,4.5 2.5,-7.5 2.5,-7.5 C2.5,-7.5 6.5,-8.5 6.5,-6.5 C6.5,-4.5 0,7.5929999351501465 0,7.5929999351501465 C0,7.5929999351501465 -2.5,8.5 -4.5,7.5 C-6.5,6.5 -6.5,4.5 -6.5,4.5z"></path></g><g opacity="1" transform="matrix(1,0,0,1,730,454)"><path fill="rgb(95,59,46)" fill-opacity="1" d=" M-6.5,4.5 C-6.5,4.5 2.5,-7.5 2.5,-7.5 C2.5,-7.5 6.5,-8.5 6.5,-6.5 C6.5,-4.5 0,7.5929999351501465 0,7.5929999351501465 C0,7.5929999351501465 -2.5,8.5 -4.5,7.5 C-6.5,6.5 -6.5,4.5 -6.5,4.5z"></path></g><g opacity="1" transform="matrix(1,0,0,1,734.4970092773438,439.510009765625)"><path fill="rgb(95,59,46)" fill-opacity="1" d=" M6.997000217437744,-4.010000228881836 C6.997000217437744,-4.010000228881836 2.1600000858306885,-7.991000175476074 0.003000000026077032,-7.010000228881836 C-2.9549999237060547,-5.664000034332275 -6.997000217437744,4.989999771118164 -6.997000217437744,4.989999771118164 C-6.997000217437744,4.989999771118164 0.003000000026077032,7.989999771118164 1.003000020980835,4.989999771118164 C2.003000020980835,1.9900000095367432 6.997000217437744,-4.010000228881836 6.997000217437744,-4.010000228881836z"></path></g></g><g transform="matrix(1,0,0,1,0,0)" opacity="0.6" style="display: block;"><g opacity="1" transform="matrix(1,0,0,1,207.77000427246094,588.5770263671875)"><path stroke-linecap="butt" stroke-linejoin="miter" fill-opacity="0" stroke-miterlimit="10" stroke="rgb(236,94,92)" stroke-opacity="1" stroke-width="11" d="M0 0"></path></g><g opacity="1" transform="matrix(1,0,0,1,239.19400024414062,545.5419921875)"><path stroke-linecap="butt" stroke-linejoin="miter" fill-opacity="0" stroke-miterlimit="10" stroke-dasharray=" 13.41 13.41" stroke-dashoffset="0" stroke="rgb(236,94,92)" stroke-opacity="1" stroke-width="11" d=" M-5.119999885559082,7.01200008392334 C-5.119999885559082,7.01200008392334 21.746999740600586,-29.781999588012695 21.746999740600586,-29.781999588012695"></path></g><g opacity="1" transform="matrix(1,0,0,1,266.6650085449219,507.9230041503906)"><path stroke-linecap="butt" stroke-linejoin="miter" fill-opacity="0" stroke-miterlimit="10" stroke="rgb(236,94,92)" stroke-opacity="1" stroke-width="11" d=" M-1.7690000534057617,2.4230000972747803 C-1.7690000534057617,2.4230000972747803 1.7699999809265137,-2.4230000972747803 1.7699999809265137,-2.4230000972747803"></path></g></g><g transform="matrix(1,0,0,1,0,0)" opacity="0.6" style="display: block;"><g opacity="1" transform="matrix(1,0,0,1,315,441.75)"><path stroke-linecap="butt" stroke-linejoin="miter" fill-opacity="0" stroke-miterlimit="10" stroke-dasharray=" 12 12" stroke-dashoffset="0" stroke="rgb(236,94,92)" stroke-opacity="1" stroke-width="11" d=" M-31.5,23.25 C-31.5,23.25 -47,-32.25 37,-32.25"></path></g></g><g transform="matrix(1,0,0,1,0,0)" opacity="0.6" style="display: block;"><g opacity="1" transform="matrix(1,0,0,1,441,438)"><path stroke-linecap="butt" stroke-linejoin="miter" fill-opacity="0" stroke-miterlimit="10" stroke-dasharray=" 12 12" stroke-dashoffset="0" stroke="rgb(236,94,92)" stroke-opacity="1" stroke-width="11" d=" M-46,-11 C-46,-11 -31,17 50,14"></path></g></g><g transform="matrix(1,0,0,1,0,0)" opacity="0.6" style="display: block;"><g opacity="1" transform="matrix(1,0,0,1,580,421.5)"><path stroke-linecap="butt" stroke-linejoin="miter" fill-opacity="0" stroke-miterlimit="10" stroke-dasharray=" 12 12" stroke-dashoffset="0" stroke="rgb(236,94,92)" stroke-opacity="1" stroke-width="11" d=" M-48,32 C-48,32 45,57.5 51,-57.5"></path></g></g><g transform="matrix(1,0,0,1,0,0)" opacity="0.6" style="display: block;"><g opacity="1" transform="matrix(1,0,0,1,593,285)"><path stroke-linecap="butt" stroke-linejoin="miter" fill-opacity="0" stroke-miterlimit="10" stroke-dasharray=" 12 12" stroke-dashoffset="0" stroke="rgb(236,94,92)" stroke-opacity="1" stroke-width="11" d=" M43.224998474121094,35.016998291015625 C44.025001525878906,13.215999603271484 35.63199996948242,-33.849998474121094 -49.41400146484375,-19.729999542236328"></path></g></g><g transform="matrix(0.8999999761581421,0,0,0.8999999761581421,20.550003051757812,58.45001220703125)" opacity="0.6" style="display: block;"><g opacity="1" transform="matrix(1,0,0,1,205.5,584.5)"><path fill="rgb(236,94,92)" fill-opacity="1" d=" M41,0 C41,22.643999099731445 22.643999099731445,41 0,41 C-22.643999099731445,41 -41,22.643999099731445 -41,0 C-41,-22.643999099731445 -22.643999099731445,-41 0,-41 C22.643999099731445,-41 41,-22.643999099731445 41,0z"></path></g></g><g transform="matrix(0.8999999761581421,0,0,0.8999999761581421,28.32501220703125,48.675018310546875)" opacity="0.6" style="display: block;"><g opacity="1" transform="matrix(1,0,0,1,283.25,486.75)"><path fill="rgb(236,94,92)" fill-opacity="1" d=" M18.75,0 C18.75,10.354999542236328 10.354999542236328,18.75 0,18.75 C-10.354999542236328,18.75 -18.75,10.354999542236328 -18.75,0 C-18.75,-10.354999542236328 -10.354999542236328,-18.75 0,-18.75 C10.354999542236328,-18.75 18.75,-10.354999542236328 18.75,0z"></path></g></g><g transform="matrix(0.8999999761581421,0,0,0.8999999761581421,37.625,40.875)" opacity="0.6" style="display: block;"><g opacity="1" transform="matrix(1,0,0,1,376.25,408.75)"><path stroke-linecap="butt" stroke-linejoin="miter" fill-opacity="0" stroke-miterlimit="10" stroke="rgb(133,176,220)" stroke-opacity="1" stroke-width="8" d=" M18.75,0 C18.75,10.354999542236328 10.354999542236328,18.75 0,18.75 C-10.354999542236328,18.75 -18.75,10.354999542236328 -18.75,0 C-18.75,-10.354999542236328 -10.354999542236328,-18.75 0,-18.75 C10.354999542236328,-18.75 18.75,-10.354999542236328 18.75,0z"></path></g></g><g transform="matrix(0.8999999761581421,0,0,0.8999999761581421,51.0250244140625,45.175018310546875)" opacity="0.6" style="display: block;"><g opacity="1" transform="matrix(1,0,0,1,510.25,451.75)"><path fill="rgb(236,94,92)" fill-opacity="1" d=" M18.75,0 C18.75,10.354999542236328 10.354999542236328,18.75 0,18.75 C-10.354999542236328,18.75 -18.75,10.354999542236328 -18.75,0 C-18.75,-10.354999542236328 -10.354999542236328,-18.75 0,-18.75 C10.354999542236328,-18.75 18.75,-10.354999542236328 18.75,0z"></path></g></g><g transform="matrix(0.8999999761581421,0,0,0.8999999761581421,63.125,34.475006103515625)" opacity="0.6" style="display: block;"><g opacity="1" transform="matrix(1,0,0,1,631.25,344.75)"><path stroke-linecap="butt" stroke-linejoin="miter" fill-opacity="0" stroke-miterlimit="10" stroke="rgb(133,176,220)" stroke-opacity="1" stroke-width="8" d=" M18.75,0 C18.75,10.354999542236328 10.354999542236328,18.75 0,18.75 C-10.354999542236328,18.75 -18.75,10.354999542236328 -18.75,0 C-18.75,-10.354999542236328 -10.354999542236328,-18.75 0,-18.75 C10.354999542236328,-18.75 18.75,-10.354999542236328 18.75,0z"></path></g></g><g transform="matrix(-0.6340838670730591,0.6386999487876892,-0.6386999487876892,-0.6340838670730591,1035.1163330078125,107.83209228515625)" opacity="0.6" style="display: block;"><g opacity="1" transform="matrix(1,0,0,1,527.041015625,270.4010009765625)"><path fill="rgb(236,94,92)" fill-opacity="1" d=" M46.8380012512207,25.920000076293945 C46.8380012512207,25.920000076293945 -51.52299880981445,-14.524999618530273 -51.52299880981445,-14.524999618530273 C-51.52299880981445,-14.524999618530273 -46.8390007019043,-25.920000076293945 -46.8390007019043,-25.920000076293945 C-46.8390007019043,-25.920000076293945 51.52299880981445,14.52400016784668 51.52299880981445,14.52400016784668 C51.52299880981445,14.52400016784668 46.8380012512207,25.920000076293945 46.8380012512207,25.920000076293945z"></path></g><g opacity="1" transform="matrix(1,0,0,1,527.218017578125,270.8240051269531)"><path fill="rgb(236,94,92)" fill-opacity="1" d=" M46.8380012512207,25.920000076293945 C46.8380012512207,25.920000076293945 -51.52299880981445,-14.524999618530273 -51.52299880981445,-14.524999618530273 C-51.52299880981445,-14.524999618530273 -46.8390007019043,-25.920000076293945 -46.8390007019043,-25.920000076293945 C-46.8390007019043,-25.920000076293945 51.52299880981445,14.52400016784668 51.52299880981445,14.52400016784668 C51.52299880981445,14.52400016784668 46.8380012512207,25.920000076293945 46.8380012512207,25.920000076293945z"></path></g><g opacity="1" transform="matrix(1,0,0,1,526.7239990234375,272.02398681640625)"><path fill="rgb(236,94,92)" fill-opacity="1" d=" M-25.920000076293945,46.83700180053711 C-25.920000076293945,46.83700180053711 14.524999618530273,-51.52299880981445 14.524999618530273,-51.52299880981445 C14.524999618530273,-51.52299880981445 25.920000076293945,-46.8390007019043 25.920000076293945,-46.8390007019043 C25.920000076293945,-46.8390007019043 -14.52400016784668,51.52299880981445 -14.52400016784668,51.52299880981445 C-14.52400016784668,51.52299880981445 -25.920000076293945,46.83700180053711 -25.920000076293945,46.83700180053711z"></path></g></g><g transform="matrix(1,0,0,1,0,0)" opacity="0.6" style="display: block;"><g opacity="1" transform="matrix(1,0,0,1,575.2760009765625,596.0850219726562)"><path fill="rgb(133,176,220)" fill-opacity="1" d=" M11.468999862670898,30.43600082397461 C11.468999862670898,30.43600082397461 -11.762999534606934,30.325000762939453 -11.762999534606934,30.325000762939453 C-11.762999534606934,30.325000762939453 -11.468000411987305,-30.43600082397461 -11.468000411987305,-30.43600082397461 C-11.468000411987305,-30.43600082397461 11.763999938964844,-30.322999954223633 11.763999938964844,-30.322999954223633 C11.763999938964844,-30.322999954223633 11.468999862670898,30.43600082397461 11.468999862670898,30.43600082397461z"></path></g></g><g transform="matrix(1,0,0,1,0,0)" opacity="0.6" style="display: block;"><g opacity="1" transform="matrix(1,0,0,1,610.1710205078125,586.426025390625)"><path fill="rgb(236,94,92)" fill-opacity="1" d=" M11.420999526977539,40.26599884033203 C11.420999526977539,40.26599884033203 -11.812000274658203,40.15299987792969 -11.812000274658203,40.15299987792969 C-11.812000274658203,40.15299987792969 -11.420000076293945,-40.26499938964844 -11.420000076293945,-40.26499938964844 C-11.420000076293945,-40.26499938964844 11.812000274658203,-40.152000427246094 11.812000274658203,-40.152000427246094 C11.812000274658203,-40.152000427246094 11.420999526977539,40.26599884033203 11.420999526977539,40.26599884033203z"></path></g></g><g transform="matrix(1,0,0,1,0,0)" opacity="0.6" style="display: block;"><g opacity="1" transform="matrix(1,0,0,1,646.8480224609375,578.114990234375)"><path fill="rgb(133,176,220)" fill-opacity="1" d=" M11.378999710083008,48.75400161743164 C11.378999710083008,48.75400161743164 -11.852999687194824,48.641998291015625 -11.852999687194824,48.641998291015625 C-11.852999687194824,48.641998291015625 -11.380000114440918,-48.75400161743164 -11.380000114440918,-48.75400161743164 C-11.380000114440918,-48.75400161743164 11.852999687194824,-48.64099884033203 11.852999687194824,-48.64099884033203 C11.852999687194824,-48.64099884033203 11.378999710083008,48.75400161743164 11.378999710083008,48.75400161743164z"></path></g></g><g transform="matrix(1,0,0,1,0,0)" opacity="0.6" style="display: block;"><g opacity="1" transform="matrix(1,0,0,1,613.5540161132812,625.7589721679688)"><path fill="rgb(0,0,0)" fill-opacity="1" d=" M67.01100158691406,1.218999981880188 C67.01100158691406,1.218999981880188 -67.01899719238281,0.5680000185966492 -67.01899719238281,0.5680000185966492 C-67.01899719238281,0.5680000185966492 -67.01000213623047,-1.2200000286102295 -67.01000213623047,-1.2200000286102295 C-67.01000213623047,-1.2200000286102295 67.0199966430664,-0.5680000185966492 67.0199966430664,-0.5680000185966492 C67.0199966430664,-0.5680000185966492 67.01100158691406,1.218999981880188 67.01100158691406,1.218999981880188z"></path></g></g><g transform="matrix(1,0,0,1,0,0)" opacity="0.6" style="display: block;"><g opacity="1" transform="matrix(1,0,0,1,547.739013671875,562.4429931640625)"><path fill="rgb(0,0,0)" fill-opacity="1" d=" M-1.2039999961853027,63.882999420166016 C-1.2039999961853027,63.882999420166016 -0.5830000042915344,-63.891998291015625 -0.5830000042915344,-63.891998291015625 C-0.5830000042915344,-63.891998291015625 1.2050000429153442,-63.88399887084961 1.2050000429153442,-63.88399887084961 C1.2050000429153442,-63.88399887084961 0.5830000042915344,63.891998291015625 0.5830000042915344,63.891998291015625 C0.5830000042915344,63.891998291015625 -1.2039999961853027,63.882999420166016 -1.2039999961853027,63.882999420166016z"></path></g></g><g transform="matrix(1,0,0,1,0,0)" opacity="0.6" style="display: block;"><g opacity="1" transform="matrix(1,0,0,1,694.0280151367188,522.9439697265625)"><path fill="rgb(133,176,220)" fill-opacity="1" d=" M5.53000020980835,5.835000038146973 C5.53000020980835,5.835000038146973 -5.586999893188477,5.781000137329102 -5.586999893188477,5.781000137329102 C-5.724999904632568,5.78000020980835 -5.835999965667725,5.668000221252441 -5.835000038146973,5.53000020980835 C-5.835000038146973,5.53000020980835 -5.7820000648498535,-5.586999893188477 -5.7820000648498535,-5.586999893188477 C-5.781000137329102,-5.724999904632568 -5.668000221252441,-5.835999965667725 -5.531000137329102,-5.835000038146973 C-5.531000137329102,-5.835000038146973 5.586999893188477,-5.781000137329102 5.586999893188477,-5.781000137329102 C5.723999977111816,-5.78000020980835 5.835999965667725,-5.668000221252441 5.835000038146973,-5.53000020980835 C5.835000038146973,-5.53000020980835 5.781000137329102,5.585999965667725 5.781000137329102,5.585999965667725 C5.78000020980835,5.723999977111816 5.668000221252441,5.835000038146973 5.53000020980835,5.835000038146973z"></path></g></g><g transform="matrix(1,0,0,1,0,0)" opacity="0.6" style="display: block;"><g opacity="1" transform="matrix(1,0,0,1,693.9539794921875,538.1339721679688)"><path fill="rgb(236,94,92)" fill-opacity="1" d=" M5.53000020980835,5.835000038146973 C5.53000020980835,5.835000038146973 -5.585999965667725,5.78000020980835 -5.585999965667725,5.78000020980835 C-5.724999904632568,5.78000020980835 -5.835999965667725,5.668000221252441 -5.835999965667725,5.5289998054504395 C-5.835999965667725,5.5289998054504395 -5.781000137329102,-5.586999893188477 -5.781000137329102,-5.586999893188477 C-5.781000137329102,-5.724999904632568 -5.668000221252441,-5.835999965667725 -5.531000137329102,-5.835000038146973 C-5.531000137329102,-5.835000038146973 5.585999965667725,-5.781000137329102 5.585999965667725,-5.781000137329102 C5.7230000495910645,-5.781000137329102 5.835999965667725,-5.668000221252441 5.835000038146973,-5.531000137329102 C5.835000038146973,-5.531000137329102 5.781000137329102,5.585999965667725 5.781000137329102,5.585999965667725 C5.78000020980835,5.723999977111816 5.668000221252441,5.835000038146973 5.53000020980835,5.835000038146973z"></path></g></g><g transform="matrix(1,0,0,1,0,0)" opacity="0.6" style="display: block;"><g opacity="1" transform="matrix(1,0,0,1,693.8800048828125,553.323974609375)"><path fill="rgb(133,176,220)" fill-opacity="1" d=" M5.531000137329102,5.835000038146973 C5.531000137329102,5.835000038146973 -5.585999965667725,5.781000137329102 -5.585999965667725,5.781000137329102 C-5.723999977111816,5.78000020980835 -5.835999965667725,5.668000221252441 -5.835000038146973,5.53000020980835 C-5.835000038146973,5.53000020980835 -5.781000137329102,-5.586999893188477 -5.781000137329102,-5.586999893188477 C-5.78000020980835,-5.724999904632568 -5.668000221252441,-5.835999965667725 -5.531000137329102,-5.835000038146973 C-5.531000137329102,-5.835000038146973 5.585999965667725,-5.781000137329102 5.585999965667725,-5.781000137329102 C5.723999977111816,-5.78000020980835 5.835999965667725,-5.668000221252441 5.835999965667725,-5.53000020980835 C5.835999965667725,-5.53000020980835 5.781000137329102,5.586999893188477 5.781000137329102,5.586999893188477 C5.781000137329102,5.724999904632568 5.669000148773193,5.835999965667725 5.531000137329102,5.835000038146973z"></path></g></g><g transform="matrix(1,0,0,1,0,0)" opacity="0.6" style="display: block;"><g opacity="1" transform="matrix(1,0,0,1,724.9299926757812,522.9119873046875)"><path fill="rgb(0,0,0)" fill-opacity="1" d=" M21.739999771118164,1.777999997138977 C21.739999771118164,1.777999997138977 -21.756999969482422,1.5670000314712524 -21.756999969482422,1.5670000314712524 C-21.756999969482422,1.5670000314712524 -21.739999771118164,-1.7790000438690186 -21.739999771118164,-1.7790000438690186 C-21.739999771118164,-1.7790000438690186 21.756000518798828,-1.5679999589920044 21.756000518798828,-1.5679999589920044 C21.756000518798828,-1.5679999589920044 21.739999771118164,1.777999997138977 21.739999771118164,1.777999997138977z"></path></g></g><g transform="matrix(1,0,0,1,0,0)" opacity="0.6" style="display: block;"><g opacity="1" transform="matrix(1,0,0,1,724.85400390625,538.5260009765625)"><path fill="rgb(0,0,0)" fill-opacity="1" d=" M21.739999771118164,1.7790000438690186 C21.739999771118164,1.7790000438690186 -21.756999969482422,1.5679999589920044 -21.756999969482422,1.5679999589920044 C-21.756999969482422,1.5679999589920044 -21.739999771118164,-1.7790000438690186 -21.739999771118164,-1.7790000438690186 C-21.739999771118164,-1.7790000438690186 21.756000518798828,-1.5670000314712524 21.756000518798828,-1.5670000314712524 C21.756000518798828,-1.5670000314712524 21.739999771118164,1.7790000438690186 21.739999771118164,1.7790000438690186z"></path></g></g><g transform="matrix(1,0,0,1,0,0)" opacity="0.6" style="display: block;"><g opacity="1" transform="matrix(1,0,0,1,724.7789916992188,554.1400146484375)"><path fill="rgb(0,0,0)" fill-opacity="1" d=" M21.739999771118164,1.7790000438690186 C21.739999771118164,1.7790000438690186 -21.756000518798828,1.5670000314712524 -21.756000518798828,1.5670000314712524 C-21.756000518798828,1.5670000314712524 -21.739999771118164,-1.7790000438690186 -21.739999771118164,-1.7790000438690186 C-21.739999771118164,-1.7790000438690186 21.756000518798828,-1.5679999589920044 21.756000518798828,-1.5679999589920044 C21.756000518798828,-1.5679999589920044 21.739999771118164,1.7790000438690186 21.739999771118164,1.7790000438690186z"></path></g></g><g transform="matrix(1,0,0,1,0,0)" opacity="0.6" style="display: block;"><g opacity="1" transform="matrix(1,0,0,1,227.05999755859375,300.72198486328125)"><path fill="rgb(236,94,92)" fill-opacity="1" d=" M63.762001037597656,1.5479999780654907 C62.90700149536133,36.76300048828125 33.66699981689453,64.61699676513672 -1.5479999780654907,63.762001037597656 C-36.76300048828125,62.90700149536133 -64.61699676513672,33.66699981689453 -63.762001037597656,-1.5479999780654907 C-62.90700149536133,-36.76300048828125 -33.66699981689453,-64.61699676513672 1.5479999780654907,-63.762001037597656 C36.762001037597656,-62.90700149536133 64.61699676513672,-33.66699981689453 63.762001037597656,1.5479999780654907z"></path></g><g opacity="1" transform="matrix(1,0,0,1,195.1790008544922,300.79901123046875)"><path fill="rgb(133,176,220)" fill-opacity="1" d=" M33.42900085449219,-63.8390007019043 C33.42900085449219,-63.8390007019043 30.29199981689453,65.38700103759766 30.29199981689453,65.38700103759766 C30.29199981689453,65.38700103759766 -33.42900085449219,62.13800048828125 -31.881000518798828,-1.6239999532699585 C-30.33300018310547,-65.38600158691406 33.42900085449219,-63.8390007019043 33.42900085449219,-63.8390007019043z"></path></g><g opacity="1" transform="matrix(1,0,0,1,258.14599609375,333.4540100097656)"><path fill="rgb(236,94,92)" fill-opacity="1" d=" M32.67599868774414,-31.18400001525879 C32.67599868774414,-31.18400001525879 -31.086000442504883,-32.731998443603516 -31.086000442504883,-32.731998443603516 C-31.086000442504883,-32.731998443603516 -32.67599868774414,32.731998443603516 -32.67599868774414,32.731998443603516 C-32.67599868774414,32.731998443603516 30.277999877929688,32.55799865722656 32.67599868774414,-31.18400001525879z"></path></g><g opacity="1" transform="matrix(1,0,0,1,321.4100036621094,286.5530090332031)"><path fill="rgb(133,176,220)" fill-opacity="1" d=" M5.6529998779296875,5.959000110626221 C5.6529998779296875,5.959000110626221 -5.710000038146973,5.9039998054504395 -5.710000038146973,5.9039998054504395 C-5.8480000495910645,5.9029998779296875 -5.960000038146973,5.790999889373779 -5.960000038146973,5.6529998779296875 C-5.960000038146973,5.6529998779296875 -5.9029998779296875,-5.710000038146973 -5.9029998779296875,-5.710000038146973 C-5.9029998779296875,-5.8480000495910645 -5.789999961853027,-5.959000110626221 -5.6529998779296875,-5.958000183105469 C-5.6529998779296875,-5.958000183105469 5.710999965667725,-5.9029998779296875 5.710999965667725,-5.9029998779296875 C5.8480000495910645,-5.9029998779296875 5.960000038146973,-5.790999889373779 5.959000110626221,-5.6519999504089355 C5.959000110626221,-5.6519999504089355 5.9029998779296875,5.710000038146973 5.9029998779296875,5.710000038146973 C5.9029998779296875,5.848999977111816 5.790999889373779,5.959000110626221 5.6529998779296875,5.959000110626221z"></path></g><g opacity="1" transform="matrix(1,0,0,1,321.2590026855469,317.5769958496094)"><path fill="rgb(236,94,92)" fill-opacity="1" d=" M5.6529998779296875,5.959000110626221 C5.6529998779296875,5.959000110626221 -5.710000038146973,5.9029998779296875 -5.710000038146973,5.9029998779296875 C-5.8480000495910645,5.9029998779296875 -5.960000038146973,5.790999889373779 -5.960000038146973,5.6529998779296875 C-5.960000038146973,5.6529998779296875 -5.9029998779296875,-5.710000038146973 -5.9029998779296875,-5.710000038146973 C-5.9029998779296875,-5.8480000495910645 -5.789999961853027,-5.959000110626221 -5.6529998779296875,-5.958000183105469 C-5.6529998779296875,-5.958000183105469 5.710999965667725,-5.9029998779296875 5.710999965667725,-5.9029998779296875 C5.8480000495910645,-5.9029998779296875 5.960000038146973,-5.790999889373779 5.959000110626221,-5.6529998779296875 C5.959000110626221,-5.6529998779296875 5.9029998779296875,5.710000038146973 5.9029998779296875,5.710000038146973 C5.9029998779296875,5.8480000495910645 5.790999889373779,5.959000110626221 5.6529998779296875,5.959000110626221z"></path></g><g opacity="1" transform="matrix(1,0,0,1,352.02398681640625,288.1629943847656)"><path fill="rgb(0,0,0)" fill-opacity="1" d=" M19.72100067138672,1.6130000352859497 C19.72100067138672,1.6130000352859497 -19.736000061035156,1.4220000505447388 -19.736000061035156,1.4220000505447388 C-19.736000061035156,1.4220000505447388 -19.719999313354492,-1.6130000352859497 -19.719999313354492,-1.6130000352859497 C-19.719999313354492,-1.6130000352859497 19.736000061035156,-1.4210000038146973 19.736000061035156,-1.4210000038146973 C19.736000061035156,-1.4210000038146973 19.72100067138672,1.6130000352859497 19.72100067138672,1.6130000352859497z"></path></g><g opacity="1" transform="matrix(1,0,0,1,351.885986328125,316.489990234375)"><path fill="rgb(0,0,0)" fill-opacity="1" d=" M19.72100067138672,1.6130000352859497 C19.72100067138672,1.6130000352859497 -19.736000061035156,1.4229999780654907 -19.736000061035156,1.4229999780654907 C-19.736000061035156,1.4229999780654907 -19.719999313354492,-1.6130000352859497 -19.719999313354492,-1.6130000352859497 C-19.719999313354492,-1.6130000352859497 19.736000061035156,-1.4210000038146973 19.736000061035156,-1.4210000038146973 C19.736000061035156,-1.4210000038146973 19.72100067138672,1.6130000352859497 19.72100067138672,1.6130000352859497z"></path></g></g></g></svg>